<svg xmlns="http://www.w3.org/2000/svg" xmlns:xlink="http://www.w3.org/1999/xlink" width="300" zoomAndPan="magnify" viewBox="0 0 224.87999 74.999997" height="100" preserveAspectRatio="xMidYMid meet" version="1.0"><defs><g/><clipPath id="1a1c8eaa54"><path d="M 0 26.8125 L 21.738281 26.8125 L 21.738281 48.550781 L 0 48.550781 Z M 0 26.8125 " clip-rule="nonzero"/></clipPath><clipPath id="29678dc2cc"><path d="M 3 40 L 18 40 L 18 44 L 3 44 Z M 3 40 " clip-rule="nonzero"/></clipPath><clipPath id="e41e602d12"><path d="M 6.132812 40.566406 C 6.222656 40.472656 6.339844 40.429688 6.453125 40.429688 L 17.621094 40.429688 C 17.824219 40.429688 17.917969 40.679688 17.78125 40.816406 L 15.582031 43.011719 C 15.492188 43.105469 15.378906 43.152344 15.261719 43.152344 L 4.097656 43.152344 C 3.890625 43.152344 3.796875 42.898438 3.9375 42.761719 Z M 6.132812 40.566406 " clip-rule="nonzero"/></clipPath><linearGradient x1="59.060775" gradientTransform="matrix(0.228825, 0, 0, 0.228825, -0.572063, -1046.03423)" y1="4736.650218" x2="40.962941" gradientUnits="userSpaceOnUse" y2="4771.314455" id="934fe908b3"><stop stop-opacity="1" stop-color="rgb(40.515137%, 58.778381%, 80.847168%)" offset="0"/><stop stop-opacity="1" stop-color="rgb(40.69519%, 58.595276%, 80.921936%)" offset="0.0078125"/><stop stop-opacity="1" stop-color="rgb(41.056824%, 58.227539%, 81.072998%)" offset="0.015625"/><stop stop-opacity="1" stop-color="rgb(41.416931%, 57.859802%, 81.22406%)" offset="0.0234375"/><stop stop-opacity="1" stop-color="rgb(41.778564%, 57.492065%, 81.375122%)" offset="0.03125"/><stop stop-opacity="1" stop-color="rgb(42.140198%, 57.125854%, 81.526184%)" offset="0.0390625"/><stop stop-opacity="1" stop-color="rgb(42.500305%, 56.758118%, 81.677246%)" offset="0.046875"/><stop stop-opacity="1" stop-color="rgb(42.861938%, 56.390381%, 81.828308%)" offset="0.0546875"/><stop stop-opacity="1" stop-color="rgb(43.223572%, 56.022644%, 81.97937%)" offset="0.0625"/><stop stop-opacity="1" stop-color="rgb(43.583679%, 55.654907%, 82.130432%)" offset="0.0703125"/><stop stop-opacity="1" stop-color="rgb(43.945312%, 55.288696%, 82.281494%)" offset="0.078125"/><stop stop-opacity="1" stop-color="rgb(44.306946%, 54.920959%, 82.432556%)" offset="0.0859375"/><stop stop-opacity="1" stop-color="rgb(44.667053%, 54.553223%, 82.583618%)" offset="0.09375"/><stop stop-opacity="1" stop-color="rgb(45.028687%, 54.185486%, 82.73468%)" offset="0.101562"/><stop stop-opacity="1" stop-color="rgb(45.39032%, 53.819275%, 82.885742%)" offset="0.109375"/><stop stop-opacity="1" stop-color="rgb(45.750427%, 53.451538%, 83.036804%)" offset="0.117187"/><stop stop-opacity="1" stop-color="rgb(46.112061%, 53.083801%, 83.187866%)" offset="0.125"/><stop stop-opacity="1" stop-color="rgb(46.473694%, 52.716064%, 83.338928%)" offset="0.132812"/><stop stop-opacity="1" stop-color="rgb(46.833801%, 52.348328%, 83.48999%)" offset="0.140625"/><stop stop-opacity="1" stop-color="rgb(47.195435%, 51.982117%, 83.641052%)" offset="0.148437"/><stop stop-opacity="1" stop-color="rgb(47.557068%, 51.61438%, 83.792114%)" offset="0.15625"/><stop stop-opacity="1" stop-color="rgb(47.917175%, 51.246643%, 83.943176%)" offset="0.164062"/><stop stop-opacity="1" stop-color="rgb(48.278809%, 50.878906%, 84.094238%)" offset="0.171875"/><stop stop-opacity="1" stop-color="rgb(48.640442%, 50.512695%, 84.2453%)" offset="0.179687"/><stop stop-opacity="1" stop-color="rgb(49.000549%, 50.144958%, 84.396362%)" offset="0.1875"/><stop stop-opacity="1" stop-color="rgb(49.362183%, 49.777222%, 84.547424%)" offset="0.195312"/><stop stop-opacity="1" stop-color="rgb(49.723816%, 49.409485%, 84.698486%)" offset="0.203125"/><stop stop-opacity="1" stop-color="rgb(50.083923%, 49.041748%, 84.849548%)" offset="0.210937"/><stop stop-opacity="1" stop-color="rgb(50.445557%, 48.675537%, 85.00061%)" offset="0.21875"/><stop stop-opacity="1" stop-color="rgb(50.80719%, 48.3078%, 85.151672%)" offset="0.226562"/><stop stop-opacity="1" stop-color="rgb(51.167297%, 47.940063%, 85.302734%)" offset="0.234375"/><stop stop-opacity="1" stop-color="rgb(51.528931%, 47.572327%, 85.453796%)" offset="0.242187"/><stop stop-opacity="1" stop-color="rgb(51.890564%, 47.206116%, 85.604858%)" offset="0.25"/><stop stop-opacity="1" stop-color="rgb(52.250671%, 46.838379%, 85.75592%)" offset="0.257812"/><stop stop-opacity="1" stop-color="rgb(52.612305%, 46.470642%, 85.906982%)" offset="0.265625"/><stop stop-opacity="1" stop-color="rgb(52.973938%, 46.102905%, 86.058044%)" offset="0.269762"/><stop stop-opacity="1" stop-color="rgb(53.153992%, 45.9198%, 86.134338%)" offset="0.273437"/><stop stop-opacity="1" stop-color="rgb(53.334045%, 45.735168%, 86.209106%)" offset="0.28125"/><stop stop-opacity="1" stop-color="rgb(53.695679%, 45.368958%, 86.360168%)" offset="0.289062"/><stop stop-opacity="1" stop-color="rgb(54.057312%, 45.001221%, 86.51123%)" offset="0.296875"/><stop stop-opacity="1" stop-color="rgb(54.417419%, 44.633484%, 86.662292%)" offset="0.304687"/><stop stop-opacity="1" stop-color="rgb(54.779053%, 44.265747%, 86.813354%)" offset="0.3125"/><stop stop-opacity="1" stop-color="rgb(55.140686%, 43.899536%, 86.964417%)" offset="0.320312"/><stop stop-opacity="1" stop-color="rgb(55.500793%, 43.531799%, 87.115479%)" offset="0.328125"/><stop stop-opacity="1" stop-color="rgb(55.862427%, 43.164062%, 87.266541%)" offset="0.335938"/><stop stop-opacity="1" stop-color="rgb(56.22406%, 42.796326%, 87.417603%)" offset="0.34375"/><stop stop-opacity="1" stop-color="rgb(56.584167%, 42.428589%, 87.568665%)" offset="0.351562"/><stop stop-opacity="1" stop-color="rgb(56.945801%, 42.062378%, 87.719727%)" offset="0.359375"/><stop stop-opacity="1" stop-color="rgb(57.307434%, 41.694641%, 87.870789%)" offset="0.367187"/><stop stop-opacity="1" stop-color="rgb(57.667542%, 41.326904%, 88.021851%)" offset="0.375"/><stop stop-opacity="1" stop-color="rgb(58.029175%, 40.959167%, 88.172913%)" offset="0.382812"/><stop stop-opacity="1" stop-color="rgb(58.390808%, 40.592957%, 88.323975%)" offset="0.390625"/><stop stop-opacity="1" stop-color="rgb(58.750916%, 40.22522%, 88.475037%)" offset="0.398437"/><stop stop-opacity="1" stop-color="rgb(59.112549%, 39.857483%, 88.626099%)" offset="0.40625"/><stop stop-opacity="1" stop-color="rgb(59.474182%, 39.489746%, 88.777161%)" offset="0.414062"/><stop stop-opacity="1" stop-color="rgb(59.83429%, 39.122009%, 88.928223%)" offset="0.421875"/><stop stop-opacity="1" stop-color="rgb(60.195923%, 38.755798%, 89.079285%)" offset="0.429687"/><stop stop-opacity="1" stop-color="rgb(60.557556%, 38.388062%, 89.230347%)" offset="0.4375"/><stop stop-opacity="1" stop-color="rgb(60.917664%, 38.020325%, 89.381409%)" offset="0.445312"/><stop stop-opacity="1" stop-color="rgb(61.279297%, 37.652588%, 89.532471%)" offset="0.453125"/><stop stop-opacity="1" stop-color="rgb(61.64093%, 37.286377%, 89.683533%)" offset="0.460938"/><stop stop-opacity="1" stop-color="rgb(62.001038%, 36.91864%, 89.834595%)" offset="0.46875"/><stop stop-opacity="1" stop-color="rgb(62.362671%, 36.550903%, 89.985657%)" offset="0.476562"/><stop stop-opacity="1" stop-color="rgb(62.724304%, 36.183167%, 90.136719%)" offset="0.484375"/><stop stop-opacity="1" stop-color="rgb(63.084412%, 35.81543%, 90.287781%)" offset="0.492187"/><stop stop-opacity="1" stop-color="rgb(63.446045%, 35.449219%, 90.438843%)" offset="0.5"/><stop stop-opacity="1" stop-color="rgb(63.807678%, 35.081482%, 90.589905%)" offset="0.507812"/><stop stop-opacity="1" stop-color="rgb(64.167786%, 34.713745%, 90.740967%)" offset="0.515625"/><stop stop-opacity="1" stop-color="rgb(64.529419%, 34.346008%, 90.892029%)" offset="0.523437"/><stop stop-opacity="1" stop-color="rgb(64.891052%, 33.979797%, 91.043091%)" offset="0.53125"/><stop stop-opacity="1" stop-color="rgb(65.25116%, 33.612061%, 91.194153%)" offset="0.539062"/><stop stop-opacity="1" stop-color="rgb(65.612793%, 33.244324%, 91.345215%)" offset="0.546875"/><stop stop-opacity="1" stop-color="rgb(65.974426%, 32.876587%, 91.496277%)" offset="0.554687"/><stop stop-opacity="1" stop-color="rgb(66.334534%, 32.50885%, 91.647339%)" offset="0.5625"/><stop stop-opacity="1" stop-color="rgb(66.696167%, 32.142639%, 91.798401%)" offset="0.570312"/><stop stop-opacity="1" stop-color="rgb(67.0578%, 31.774902%, 91.949463%)" offset="0.578125"/><stop stop-opacity="1" stop-color="rgb(67.417908%, 31.407166%, 92.100525%)" offset="0.585938"/><stop stop-opacity="1" stop-color="rgb(67.779541%, 31.039429%, 92.251587%)" offset="0.59375"/><stop stop-opacity="1" stop-color="rgb(68.141174%, 30.673218%, 92.402649%)" offset="0.601562"/><stop stop-opacity="1" stop-color="rgb(68.501282%, 30.305481%, 92.553711%)" offset="0.609375"/><stop stop-opacity="1" stop-color="rgb(68.862915%, 29.937744%, 92.704773%)" offset="0.617188"/><stop stop-opacity="1" stop-color="rgb(69.224548%, 29.570007%, 92.855835%)" offset="0.625"/><stop stop-opacity="1" stop-color="rgb(69.584656%, 29.202271%, 93.006897%)" offset="0.632812"/><stop stop-opacity="1" stop-color="rgb(69.946289%, 28.83606%, 93.157959%)" offset="0.640625"/><stop stop-opacity="1" stop-color="rgb(70.307922%, 28.468323%, 93.309021%)" offset="0.648437"/><stop stop-opacity="1" stop-color="rgb(70.66803%, 28.100586%, 93.460083%)" offset="0.65625"/><stop stop-opacity="1" stop-color="rgb(71.029663%, 27.732849%, 93.611145%)" offset="0.664062"/><stop stop-opacity="1" stop-color="rgb(71.391296%, 27.366638%, 93.762207%)" offset="0.671875"/><stop stop-opacity="1" stop-color="rgb(71.751404%, 26.998901%, 93.913269%)" offset="0.679688"/><stop stop-opacity="1" stop-color="rgb(72.113037%, 26.631165%, 94.064331%)" offset="0.6875"/><stop stop-opacity="1" stop-color="rgb(72.47467%, 26.263428%, 94.215393%)" offset="0.695312"/><stop stop-opacity="1" stop-color="rgb(72.834778%, 25.895691%, 94.366455%)" offset="0.703125"/><stop stop-opacity="1" stop-color="rgb(73.196411%, 25.52948%, 94.517517%)" offset="0.710938"/><stop stop-opacity="1" stop-color="rgb(73.558044%, 25.161743%, 94.668579%)" offset="0.71875"/><stop stop-opacity="1" stop-color="rgb(73.918152%, 24.794006%, 94.819641%)" offset="0.726562"/><stop stop-opacity="1" stop-color="rgb(74.279785%, 24.42627%, 94.970703%)" offset="0.730238"/><stop stop-opacity="1" stop-color="rgb(74.459839%, 24.243164%, 95.046997%)" offset="0.734375"/><stop stop-opacity="1" stop-color="rgb(74.639893%, 24.060059%, 95.121765%)" offset="0.742188"/><stop stop-opacity="1" stop-color="rgb(75.001526%, 23.692322%, 95.272827%)" offset="0.75"/><stop stop-opacity="1" stop-color="rgb(75.363159%, 23.324585%, 95.423889%)" offset="0.757812"/><stop stop-opacity="1" stop-color="rgb(75.723267%, 22.956848%, 95.574951%)" offset="0.765625"/><stop stop-opacity="1" stop-color="rgb(76.0849%, 22.589111%, 95.726013%)" offset="0.773437"/><stop stop-opacity="1" stop-color="rgb(76.446533%, 22.2229%, 95.877075%)" offset="0.78125"/><stop stop-opacity="1" stop-color="rgb(76.806641%, 21.855164%, 96.028137%)" offset="0.789062"/><stop stop-opacity="1" stop-color="rgb(77.168274%, 21.487427%, 96.179199%)" offset="0.796875"/><stop stop-opacity="1" stop-color="rgb(77.529907%, 21.11969%, 96.330261%)" offset="0.804688"/><stop stop-opacity="1" stop-color="rgb(77.890015%, 20.753479%, 96.481323%)" offset="0.8125"/><stop stop-opacity="1" stop-color="rgb(78.251648%, 20.385742%, 96.632385%)" offset="0.820312"/><stop stop-opacity="1" stop-color="rgb(78.613281%, 20.018005%, 96.783447%)" offset="0.828125"/><stop stop-opacity="1" stop-color="rgb(78.973389%, 19.650269%, 96.934509%)" offset="0.835938"/><stop stop-opacity="1" stop-color="rgb(79.335022%, 19.282532%, 97.085571%)" offset="0.84375"/><stop stop-opacity="1" stop-color="rgb(79.696655%, 18.916321%, 97.236633%)" offset="0.851562"/><stop stop-opacity="1" stop-color="rgb(80.056763%, 18.548584%, 97.387695%)" offset="0.859375"/><stop stop-opacity="1" stop-color="rgb(80.418396%, 18.180847%, 97.538757%)" offset="0.867188"/><stop stop-opacity="1" stop-color="rgb(80.780029%, 17.81311%, 97.689819%)" offset="0.875"/><stop stop-opacity="1" stop-color="rgb(81.140137%, 17.446899%, 97.840881%)" offset="0.882812"/><stop stop-opacity="1" stop-color="rgb(81.50177%, 17.079163%, 97.991943%)" offset="0.890625"/><stop stop-opacity="1" stop-color="rgb(81.863403%, 16.711426%, 98.143005%)" offset="0.898437"/><stop stop-opacity="1" stop-color="rgb(82.223511%, 16.343689%, 98.294067%)" offset="0.90625"/><stop stop-opacity="1" stop-color="rgb(82.585144%, 15.975952%, 98.445129%)" offset="0.914062"/><stop stop-opacity="1" stop-color="rgb(82.946777%, 15.609741%, 98.596191%)" offset="0.921875"/><stop stop-opacity="1" stop-color="rgb(83.306885%, 15.242004%, 98.747253%)" offset="0.929688"/><stop stop-opacity="1" stop-color="rgb(83.668518%, 14.874268%, 98.898315%)" offset="0.9375"/><stop stop-opacity="1" stop-color="rgb(84.030151%, 14.506531%, 99.049377%)" offset="0.945312"/><stop stop-opacity="1" stop-color="rgb(84.390259%, 14.14032%, 99.200439%)" offset="0.953125"/><stop stop-opacity="1" stop-color="rgb(84.751892%, 13.772583%, 99.351501%)" offset="0.960938"/><stop stop-opacity="1" stop-color="rgb(85.113525%, 13.404846%, 99.502563%)" offset="0.96875"/><stop stop-opacity="1" stop-color="rgb(85.473633%, 13.037109%, 99.653625%)" offset="0.976563"/><stop stop-opacity="1" stop-color="rgb(85.835266%, 12.669373%, 99.804688%)" offset="0.984375"/><stop stop-opacity="1" stop-color="rgb(86.157227%, 12.342834%, 99.940491%)" offset="1"/></linearGradient><clipPath id="5953b7a3c7"><path d="M 3 32 L 18 32 L 18 35 L 3 35 Z M 3 32 " clip-rule="nonzero"/></clipPath><clipPath id="eaf3fa84e5"><path d="M 6.132812 32.328125 C 6.222656 32.234375 6.339844 32.191406 6.453125 32.191406 L 17.621094 32.191406 C 17.824219 32.191406 17.917969 32.441406 17.78125 32.578125 L 15.582031 34.777344 C 15.492188 34.867188 15.378906 34.914062 15.261719 34.914062 L 4.097656 34.914062 C 3.890625 34.914062 3.796875 34.660156 3.9375 34.523438 Z M 6.132812 32.328125 " clip-rule="nonzero"/></clipPath><linearGradient x1="59.056318" gradientTransform="matrix(0.228825, 0, 0, 0.228825, -0.572063, -1046.03423)" y1="4700.64805" x2="40.958814" gradientUnits="userSpaceOnUse" y2="4735.31214" id="c100c3b544"><stop stop-opacity="1" stop-color="rgb(2.792358%, 97.157288%, 65.068054%)" offset="0"/><stop stop-opacity="1" stop-color="rgb(2.972412%, 96.972656%, 65.142822%)" offset="0.0078125"/><stop stop-opacity="1" stop-color="rgb(3.334045%, 96.604919%, 65.293884%)" offset="0.015625"/><stop stop-opacity="1" stop-color="rgb(3.694153%, 96.238708%, 65.444946%)" offset="0.0234375"/><stop stop-opacity="1" stop-color="rgb(4.055786%, 95.870972%, 65.596008%)" offset="0.03125"/><stop stop-opacity="1" stop-color="rgb(4.417419%, 95.503235%, 65.74707%)" offset="0.0390625"/><stop stop-opacity="1" stop-color="rgb(4.777527%, 95.135498%, 65.898132%)" offset="0.046875"/><stop stop-opacity="1" stop-color="rgb(5.13916%, 94.769287%, 66.049194%)" offset="0.0546875"/><stop stop-opacity="1" stop-color="rgb(5.500793%, 94.40155%, 66.200256%)" offset="0.0625"/><stop stop-opacity="1" stop-color="rgb(5.860901%, 94.033813%, 66.351318%)" offset="0.0703125"/><stop stop-opacity="1" stop-color="rgb(6.222534%, 93.666077%, 66.50238%)" offset="0.078125"/><stop stop-opacity="1" stop-color="rgb(6.584167%, 93.299866%, 66.653442%)" offset="0.0859375"/><stop stop-opacity="1" stop-color="rgb(6.944275%, 92.932129%, 66.804504%)" offset="0.09375"/><stop stop-opacity="1" stop-color="rgb(7.305908%, 92.564392%, 66.955566%)" offset="0.101562"/><stop stop-opacity="1" stop-color="rgb(7.667542%, 92.196655%, 67.106628%)" offset="0.109375"/><stop stop-opacity="1" stop-color="rgb(8.027649%, 91.828918%, 67.25769%)" offset="0.117187"/><stop stop-opacity="1" stop-color="rgb(8.389282%, 91.462708%, 67.408752%)" offset="0.125"/><stop stop-opacity="1" stop-color="rgb(8.750916%, 91.094971%, 67.559814%)" offset="0.132812"/><stop stop-opacity="1" stop-color="rgb(9.111023%, 90.727234%, 67.710876%)" offset="0.140625"/><stop stop-opacity="1" stop-color="rgb(9.472656%, 90.359497%, 67.861938%)" offset="0.148438"/><stop stop-opacity="1" stop-color="rgb(9.83429%, 89.993286%, 68.013%)" offset="0.15625"/><stop stop-opacity="1" stop-color="rgb(10.194397%, 89.625549%, 68.164062%)" offset="0.164062"/><stop stop-opacity="1" stop-color="rgb(10.55603%, 89.257812%, 68.315125%)" offset="0.171875"/><stop stop-opacity="1" stop-color="rgb(10.917664%, 88.890076%, 68.466187%)" offset="0.179688"/><stop stop-opacity="1" stop-color="rgb(11.277771%, 88.522339%, 68.617249%)" offset="0.1875"/><stop stop-opacity="1" stop-color="rgb(11.639404%, 88.156128%, 68.768311%)" offset="0.195312"/><stop stop-opacity="1" stop-color="rgb(12.001038%, 87.788391%, 68.919373%)" offset="0.203125"/><stop stop-opacity="1" stop-color="rgb(12.361145%, 87.420654%, 69.070435%)" offset="0.210938"/><stop stop-opacity="1" stop-color="rgb(12.722778%, 87.052917%, 69.221497%)" offset="0.21875"/><stop stop-opacity="1" stop-color="rgb(13.084412%, 86.686707%, 69.372559%)" offset="0.226562"/><stop stop-opacity="1" stop-color="rgb(13.444519%, 86.31897%, 69.523621%)" offset="0.234375"/><stop stop-opacity="1" stop-color="rgb(13.806152%, 85.951233%, 69.674683%)" offset="0.242187"/><stop stop-opacity="1" stop-color="rgb(14.167786%, 85.583496%, 69.825745%)" offset="0.25"/><stop stop-opacity="1" stop-color="rgb(14.527893%, 85.217285%, 69.976807%)" offset="0.257812"/><stop stop-opacity="1" stop-color="rgb(14.889526%, 84.849548%, 70.127869%)" offset="0.265625"/><stop stop-opacity="1" stop-color="rgb(15.25116%, 84.481812%, 70.278931%)" offset="0.269765"/><stop stop-opacity="1" stop-color="rgb(15.431213%, 84.298706%, 70.355225%)" offset="0.273437"/><stop stop-opacity="1" stop-color="rgb(15.611267%, 84.114075%, 70.429993%)" offset="0.28125"/><stop stop-opacity="1" stop-color="rgb(15.9729%, 83.746338%, 70.581055%)" offset="0.289062"/><stop stop-opacity="1" stop-color="rgb(16.334534%, 83.380127%, 70.732117%)" offset="0.296875"/><stop stop-opacity="1" stop-color="rgb(16.694641%, 83.01239%, 70.883179%)" offset="0.304687"/><stop stop-opacity="1" stop-color="rgb(17.056274%, 82.644653%, 71.034241%)" offset="0.3125"/><stop stop-opacity="1" stop-color="rgb(17.417908%, 82.276917%, 71.185303%)" offset="0.320312"/><stop stop-opacity="1" stop-color="rgb(17.778015%, 81.910706%, 71.336365%)" offset="0.328125"/><stop stop-opacity="1" stop-color="rgb(18.139648%, 81.542969%, 71.487427%)" offset="0.335937"/><stop stop-opacity="1" stop-color="rgb(18.501282%, 81.175232%, 71.638489%)" offset="0.34375"/><stop stop-opacity="1" stop-color="rgb(18.861389%, 80.807495%, 71.789551%)" offset="0.351562"/><stop stop-opacity="1" stop-color="rgb(19.223022%, 80.439758%, 71.940613%)" offset="0.359375"/><stop stop-opacity="1" stop-color="rgb(19.58313%, 80.073547%, 72.091675%)" offset="0.367187"/><stop stop-opacity="1" stop-color="rgb(19.944763%, 79.705811%, 72.242737%)" offset="0.375"/><stop stop-opacity="1" stop-color="rgb(20.306396%, 79.338074%, 72.393799%)" offset="0.382812"/><stop stop-opacity="1" stop-color="rgb(20.666504%, 78.970337%, 72.544861%)" offset="0.390625"/><stop stop-opacity="1" stop-color="rgb(21.028137%, 78.604126%, 72.695923%)" offset="0.398437"/><stop stop-opacity="1" stop-color="rgb(21.389771%, 78.236389%, 72.846985%)" offset="0.40625"/><stop stop-opacity="1" stop-color="rgb(21.749878%, 77.868652%, 72.998047%)" offset="0.414063"/><stop stop-opacity="1" stop-color="rgb(22.111511%, 77.500916%, 73.149109%)" offset="0.421875"/><stop stop-opacity="1" stop-color="rgb(22.473145%, 77.134705%, 73.300171%)" offset="0.429688"/><stop stop-opacity="1" stop-color="rgb(22.833252%, 76.766968%, 73.451233%)" offset="0.4375"/><stop stop-opacity="1" stop-color="rgb(23.194885%, 76.399231%, 73.602295%)" offset="0.445312"/><stop stop-opacity="1" stop-color="rgb(23.556519%, 76.031494%, 73.753357%)" offset="0.453125"/><stop stop-opacity="1" stop-color="rgb(23.916626%, 75.663757%, 73.904419%)" offset="0.460937"/><stop stop-opacity="1" stop-color="rgb(24.278259%, 75.297546%, 74.055481%)" offset="0.46875"/><stop stop-opacity="1" stop-color="rgb(24.639893%, 74.92981%, 74.206543%)" offset="0.476563"/><stop stop-opacity="1" stop-color="rgb(25%, 74.562073%, 74.357605%)" offset="0.484375"/><stop stop-opacity="1" stop-color="rgb(25.361633%, 74.194336%, 74.508667%)" offset="0.492188"/><stop stop-opacity="1" stop-color="rgb(25.723267%, 73.828125%, 74.659729%)" offset="0.5"/><stop stop-opacity="1" stop-color="rgb(26.083374%, 73.460388%, 74.810791%)" offset="0.507812"/><stop stop-opacity="1" stop-color="rgb(26.445007%, 73.092651%, 74.961853%)" offset="0.515625"/><stop stop-opacity="1" stop-color="rgb(26.806641%, 72.724915%, 75.112915%)" offset="0.523437"/><stop stop-opacity="1" stop-color="rgb(27.166748%, 72.357178%, 75.263977%)" offset="0.53125"/><stop stop-opacity="1" stop-color="rgb(27.528381%, 71.990967%, 75.415039%)" offset="0.539063"/><stop stop-opacity="1" stop-color="rgb(27.890015%, 71.62323%, 75.566101%)" offset="0.546875"/><stop stop-opacity="1" stop-color="rgb(28.250122%, 71.255493%, 75.717163%)" offset="0.554688"/><stop stop-opacity="1" stop-color="rgb(28.611755%, 70.887756%, 75.868225%)" offset="0.5625"/><stop stop-opacity="1" stop-color="rgb(28.973389%, 70.521545%, 76.019287%)" offset="0.570312"/><stop stop-opacity="1" stop-color="rgb(29.333496%, 70.153809%, 76.170349%)" offset="0.578125"/><stop stop-opacity="1" stop-color="rgb(29.695129%, 69.786072%, 76.321411%)" offset="0.585937"/><stop stop-opacity="1" stop-color="rgb(30.056763%, 69.418335%, 76.472473%)" offset="0.59375"/><stop stop-opacity="1" stop-color="rgb(30.41687%, 69.052124%, 76.623535%)" offset="0.601562"/><stop stop-opacity="1" stop-color="rgb(30.778503%, 68.684387%, 76.774597%)" offset="0.609375"/><stop stop-opacity="1" stop-color="rgb(31.140137%, 68.31665%, 76.925659%)" offset="0.617188"/><stop stop-opacity="1" stop-color="rgb(31.500244%, 67.948914%, 77.076721%)" offset="0.625"/><stop stop-opacity="1" stop-color="rgb(31.861877%, 67.581177%, 77.227783%)" offset="0.632812"/><stop stop-opacity="1" stop-color="rgb(32.223511%, 67.214966%, 77.378845%)" offset="0.640625"/><stop stop-opacity="1" stop-color="rgb(32.583618%, 66.847229%, 77.529907%)" offset="0.648437"/><stop stop-opacity="1" stop-color="rgb(32.945251%, 66.479492%, 77.680969%)" offset="0.65625"/><stop stop-opacity="1" stop-color="rgb(33.306885%, 66.111755%, 77.832031%)" offset="0.664062"/><stop stop-opacity="1" stop-color="rgb(33.666992%, 65.745544%, 77.981567%)" offset="0.671875"/><stop stop-opacity="1" stop-color="rgb(34.028625%, 65.377808%, 78.132629%)" offset="0.679688"/><stop stop-opacity="1" stop-color="rgb(34.390259%, 65.010071%, 78.283691%)" offset="0.6875"/><stop stop-opacity="1" stop-color="rgb(34.750366%, 64.642334%, 78.434753%)" offset="0.695312"/><stop stop-opacity="1" stop-color="rgb(35.112%, 64.274597%, 78.585815%)" offset="0.703125"/><stop stop-opacity="1" stop-color="rgb(35.473633%, 63.908386%, 78.736877%)" offset="0.710938"/><stop stop-opacity="1" stop-color="rgb(35.83374%, 63.540649%, 78.887939%)" offset="0.71875"/><stop stop-opacity="1" stop-color="rgb(36.195374%, 63.172913%, 79.039001%)" offset="0.726562"/><stop stop-opacity="1" stop-color="rgb(36.555481%, 62.805176%, 79.190063%)" offset="0.730235"/><stop stop-opacity="1" stop-color="rgb(36.737061%, 62.62207%, 79.266357%)" offset="0.734375"/><stop stop-opacity="1" stop-color="rgb(36.917114%, 62.438965%, 79.341125%)" offset="0.742187"/><stop stop-opacity="1" stop-color="rgb(37.278748%, 62.071228%, 79.492188%)" offset="0.75"/><stop stop-opacity="1" stop-color="rgb(37.638855%, 61.703491%, 79.64325%)" offset="0.757813"/><stop stop-opacity="1" stop-color="rgb(38.000488%, 61.335754%, 79.794312%)" offset="0.765625"/><stop stop-opacity="1" stop-color="rgb(38.362122%, 60.968018%, 79.945374%)" offset="0.773438"/><stop stop-opacity="1" stop-color="rgb(38.722229%, 60.601807%, 80.096436%)" offset="0.78125"/><stop stop-opacity="1" stop-color="rgb(39.083862%, 60.23407%, 80.247498%)" offset="0.789062"/><stop stop-opacity="1" stop-color="rgb(39.445496%, 59.866333%, 80.39856%)" offset="0.796875"/><stop stop-opacity="1" stop-color="rgb(39.805603%, 59.498596%, 80.549622%)" offset="0.804688"/><stop stop-opacity="1" stop-color="rgb(40.167236%, 59.132385%, 80.700684%)" offset="0.8125"/><stop stop-opacity="1" stop-color="rgb(40.52887%, 58.764648%, 80.851746%)" offset="0.820312"/><stop stop-opacity="1" stop-color="rgb(40.888977%, 58.396912%, 81.002808%)" offset="0.828125"/><stop stop-opacity="1" stop-color="rgb(41.25061%, 58.029175%, 81.15387%)" offset="0.835938"/><stop stop-opacity="1" stop-color="rgb(41.612244%, 57.662964%, 81.304932%)" offset="0.84375"/><stop stop-opacity="1" stop-color="rgb(41.972351%, 57.295227%, 81.455994%)" offset="0.851563"/><stop stop-opacity="1" stop-color="rgb(42.333984%, 56.92749%, 81.607056%)" offset="0.859375"/><stop stop-opacity="1" stop-color="rgb(42.695618%, 56.559753%, 81.758118%)" offset="0.867188"/><stop stop-opacity="1" stop-color="rgb(43.055725%, 56.192017%, 81.90918%)" offset="0.875"/><stop stop-opacity="1" stop-color="rgb(43.417358%, 55.825806%, 82.060242%)" offset="0.882813"/><stop stop-opacity="1" stop-color="rgb(43.778992%, 55.458069%, 82.211304%)" offset="0.890625"/><stop stop-opacity="1" stop-color="rgb(44.139099%, 55.090332%, 82.362366%)" offset="0.898438"/><stop stop-opacity="1" stop-color="rgb(44.500732%, 54.722595%, 82.513428%)" offset="0.90625"/><stop stop-opacity="1" stop-color="rgb(44.862366%, 54.356384%, 82.66449%)" offset="0.914063"/><stop stop-opacity="1" stop-color="rgb(45.222473%, 53.988647%, 82.815552%)" offset="0.921875"/><stop stop-opacity="1" stop-color="rgb(45.584106%, 53.620911%, 82.966614%)" offset="0.929688"/><stop stop-opacity="1" stop-color="rgb(45.94574%, 53.253174%, 83.117676%)" offset="0.9375"/><stop stop-opacity="1" stop-color="rgb(46.305847%, 52.885437%, 83.268738%)" offset="0.945312"/><stop stop-opacity="1" stop-color="rgb(46.66748%, 52.519226%, 83.4198%)" offset="0.953125"/><stop stop-opacity="1" stop-color="rgb(47.029114%, 52.151489%, 83.570862%)" offset="0.960937"/><stop stop-opacity="1" stop-color="rgb(47.389221%, 51.783752%, 83.721924%)" offset="0.96875"/><stop stop-opacity="1" stop-color="rgb(47.750854%, 51.416016%, 83.872986%)" offset="0.976562"/><stop stop-opacity="1" stop-color="rgb(48.112488%, 51.049805%, 84.024048%)" offset="0.984375"/><stop stop-opacity="1" stop-color="rgb(48.472595%, 50.682068%, 84.17511%)" offset="0.992187"/><stop stop-opacity="1" stop-color="rgb(48.834229%, 50.314331%, 84.326172%)" offset="1"/></linearGradient><clipPath id="9fc7e74aa8"><path d="M 3 36 L 18 36 L 18 40 L 3 40 Z M 3 36 " clip-rule="nonzero"/></clipPath><clipPath id="eed3816955"><path d="M 15.605469 36.421875 C 15.515625 36.332031 15.398438 36.285156 15.285156 36.285156 L 4.097656 36.285156 C 3.890625 36.285156 3.796875 36.539062 3.9375 36.675781 L 6.132812 38.871094 C 6.222656 38.964844 6.339844 39.007812 6.453125 39.007812 L 17.621094 39.007812 C 17.824219 39.007812 17.917969 38.757812 17.78125 38.621094 Z M 15.605469 36.421875 " clip-rule="nonzero"/></clipPath><linearGradient x1="59.05251" gradientTransform="matrix(0.228825, 0, 0, 0.228825, -0.572063, -1046.03423)" y1="4718.546153" x2="40.955191" gradientUnits="userSpaceOnUse" y2="4753.210161" id="0ec75873da"><stop stop-opacity="1" stop-color="rgb(21.549988%, 78.074646%, 72.914124%)" offset="0"/><stop stop-opacity="1" stop-color="rgb(21.730042%, 77.890015%, 72.988892%)" offset="0.0078125"/><stop stop-opacity="1" stop-color="rgb(22.090149%, 77.522278%, 73.139954%)" offset="0.015625"/><stop stop-opacity="1" stop-color="rgb(22.451782%, 77.156067%, 73.291016%)" offset="0.0234375"/><stop stop-opacity="1" stop-color="rgb(22.813416%, 76.78833%, 73.442078%)" offset="0.03125"/><stop stop-opacity="1" stop-color="rgb(23.173523%, 76.420593%, 73.59314%)" offset="0.0390625"/><stop stop-opacity="1" stop-color="rgb(23.535156%, 76.052856%, 73.744202%)" offset="0.046875"/><stop stop-opacity="1" stop-color="rgb(23.895264%, 75.686646%, 73.895264%)" offset="0.0546875"/><stop stop-opacity="1" stop-color="rgb(24.256897%, 75.318909%, 74.046326%)" offset="0.0625"/><stop stop-opacity="1" stop-color="rgb(24.61853%, 74.951172%, 74.197388%)" offset="0.0703125"/><stop stop-opacity="1" stop-color="rgb(24.978638%, 74.583435%, 74.34845%)" offset="0.078125"/><stop stop-opacity="1" stop-color="rgb(25.340271%, 74.215698%, 74.499512%)" offset="0.0859375"/><stop stop-opacity="1" stop-color="rgb(25.701904%, 73.849487%, 74.650574%)" offset="0.09375"/><stop stop-opacity="1" stop-color="rgb(26.062012%, 73.48175%, 74.801636%)" offset="0.101562"/><stop stop-opacity="1" stop-color="rgb(26.423645%, 73.114014%, 74.952698%)" offset="0.109375"/><stop stop-opacity="1" stop-color="rgb(26.785278%, 72.746277%, 75.10376%)" offset="0.117187"/><stop stop-opacity="1" stop-color="rgb(27.145386%, 72.380066%, 75.254822%)" offset="0.125"/><stop stop-opacity="1" stop-color="rgb(27.507019%, 72.012329%, 75.405884%)" offset="0.132812"/><stop stop-opacity="1" stop-color="rgb(27.868652%, 71.644592%, 75.556946%)" offset="0.140625"/><stop stop-opacity="1" stop-color="rgb(28.22876%, 71.276855%, 75.708008%)" offset="0.148437"/><stop stop-opacity="1" stop-color="rgb(28.590393%, 70.910645%, 75.85907%)" offset="0.15625"/><stop stop-opacity="1" stop-color="rgb(28.952026%, 70.542908%, 76.010132%)" offset="0.164062"/><stop stop-opacity="1" stop-color="rgb(29.312134%, 70.175171%, 76.161194%)" offset="0.171875"/><stop stop-opacity="1" stop-color="rgb(29.673767%, 69.807434%, 76.312256%)" offset="0.179687"/><stop stop-opacity="1" stop-color="rgb(30.0354%, 69.439697%, 76.463318%)" offset="0.1875"/><stop stop-opacity="1" stop-color="rgb(30.395508%, 69.073486%, 76.61438%)" offset="0.195312"/><stop stop-opacity="1" stop-color="rgb(30.757141%, 68.70575%, 76.765442%)" offset="0.203125"/><stop stop-opacity="1" stop-color="rgb(31.118774%, 68.338013%, 76.916504%)" offset="0.210938"/><stop stop-opacity="1" stop-color="rgb(31.478882%, 67.970276%, 77.067566%)" offset="0.21875"/><stop stop-opacity="1" stop-color="rgb(31.840515%, 67.604065%, 77.218628%)" offset="0.226562"/><stop stop-opacity="1" stop-color="rgb(32.202148%, 67.236328%, 77.36969%)" offset="0.234375"/><stop stop-opacity="1" stop-color="rgb(32.562256%, 66.868591%, 77.520752%)" offset="0.242187"/><stop stop-opacity="1" stop-color="rgb(32.923889%, 66.500854%, 77.671814%)" offset="0.25"/><stop stop-opacity="1" stop-color="rgb(33.285522%, 66.134644%, 77.822876%)" offset="0.257812"/><stop stop-opacity="1" stop-color="rgb(33.64563%, 65.766907%, 77.973938%)" offset="0.265625"/><stop stop-opacity="1" stop-color="rgb(34.007263%, 65.39917%, 78.125%)" offset="0.269767"/><stop stop-opacity="1" stop-color="rgb(34.188843%, 65.216064%, 78.201294%)" offset="0.273437"/><stop stop-opacity="1" stop-color="rgb(34.368896%, 65.031433%, 78.276062%)" offset="0.28125"/><stop stop-opacity="1" stop-color="rgb(34.729004%, 64.663696%, 78.427124%)" offset="0.289062"/><stop stop-opacity="1" stop-color="rgb(35.090637%, 64.297485%, 78.578186%)" offset="0.296875"/><stop stop-opacity="1" stop-color="rgb(35.452271%, 63.929749%, 78.729248%)" offset="0.304687"/><stop stop-opacity="1" stop-color="rgb(35.812378%, 63.562012%, 78.88031%)" offset="0.3125"/><stop stop-opacity="1" stop-color="rgb(36.174011%, 63.194275%, 79.031372%)" offset="0.320312"/><stop stop-opacity="1" stop-color="rgb(36.534119%, 62.828064%, 79.182434%)" offset="0.328125"/><stop stop-opacity="1" stop-color="rgb(36.895752%, 62.460327%, 79.333496%)" offset="0.335938"/><stop stop-opacity="1" stop-color="rgb(37.257385%, 62.09259%, 79.484558%)" offset="0.34375"/><stop stop-opacity="1" stop-color="rgb(37.617493%, 61.724854%, 79.63562%)" offset="0.351562"/><stop stop-opacity="1" stop-color="rgb(37.979126%, 61.358643%, 79.786682%)" offset="0.359375"/><stop stop-opacity="1" stop-color="rgb(38.340759%, 60.990906%, 79.937744%)" offset="0.367187"/><stop stop-opacity="1" stop-color="rgb(38.700867%, 60.623169%, 80.088806%)" offset="0.375"/><stop stop-opacity="1" stop-color="rgb(39.0625%, 60.255432%, 80.239868%)" offset="0.382812"/><stop stop-opacity="1" stop-color="rgb(39.424133%, 59.887695%, 80.39093%)" offset="0.390625"/><stop stop-opacity="1" stop-color="rgb(39.784241%, 59.521484%, 80.541992%)" offset="0.398437"/><stop stop-opacity="1" stop-color="rgb(40.145874%, 59.153748%, 80.693054%)" offset="0.40625"/><stop stop-opacity="1" stop-color="rgb(40.507507%, 58.786011%, 80.844116%)" offset="0.414062"/><stop stop-opacity="1" stop-color="rgb(40.867615%, 58.418274%, 80.995178%)" offset="0.421875"/><stop stop-opacity="1" stop-color="rgb(41.229248%, 58.052063%, 81.14624%)" offset="0.429687"/><stop stop-opacity="1" stop-color="rgb(41.590881%, 57.684326%, 81.297302%)" offset="0.4375"/><stop stop-opacity="1" stop-color="rgb(41.950989%, 57.316589%, 81.448364%)" offset="0.445312"/><stop stop-opacity="1" stop-color="rgb(42.312622%, 56.948853%, 81.599426%)" offset="0.453125"/><stop stop-opacity="1" stop-color="rgb(42.674255%, 56.582642%, 81.750488%)" offset="0.460938"/><stop stop-opacity="1" stop-color="rgb(43.034363%, 56.214905%, 81.90155%)" offset="0.46875"/><stop stop-opacity="1" stop-color="rgb(43.395996%, 55.847168%, 82.052612%)" offset="0.476563"/><stop stop-opacity="1" stop-color="rgb(43.757629%, 55.479431%, 82.203674%)" offset="0.484375"/><stop stop-opacity="1" stop-color="rgb(44.117737%, 55.111694%, 82.354736%)" offset="0.492187"/><stop stop-opacity="1" stop-color="rgb(44.47937%, 54.745483%, 82.505798%)" offset="0.5"/><stop stop-opacity="1" stop-color="rgb(44.841003%, 54.377747%, 82.65686%)" offset="0.507813"/><stop stop-opacity="1" stop-color="rgb(45.201111%, 54.01001%, 82.807922%)" offset="0.515625"/><stop stop-opacity="1" stop-color="rgb(45.562744%, 53.642273%, 82.958984%)" offset="0.523437"/><stop stop-opacity="1" stop-color="rgb(45.924377%, 53.276062%, 83.110046%)" offset="0.53125"/><stop stop-opacity="1" stop-color="rgb(46.284485%, 52.908325%, 83.259583%)" offset="0.539062"/><stop stop-opacity="1" stop-color="rgb(46.646118%, 52.540588%, 83.410645%)" offset="0.546875"/><stop stop-opacity="1" stop-color="rgb(47.007751%, 52.172852%, 83.561707%)" offset="0.554687"/><stop stop-opacity="1" stop-color="rgb(47.367859%, 51.805115%, 83.712769%)" offset="0.5625"/><stop stop-opacity="1" stop-color="rgb(47.729492%, 51.438904%, 83.863831%)" offset="0.570312"/><stop stop-opacity="1" stop-color="rgb(48.091125%, 51.071167%, 84.014893%)" offset="0.578125"/><stop stop-opacity="1" stop-color="rgb(48.451233%, 50.70343%, 84.165955%)" offset="0.585937"/><stop stop-opacity="1" stop-color="rgb(48.812866%, 50.335693%, 84.317017%)" offset="0.59375"/><stop stop-opacity="1" stop-color="rgb(49.172974%, 49.969482%, 84.468079%)" offset="0.601562"/><stop stop-opacity="1" stop-color="rgb(49.534607%, 49.601746%, 84.619141%)" offset="0.609375"/><stop stop-opacity="1" stop-color="rgb(49.89624%, 49.234009%, 84.770203%)" offset="0.617188"/><stop stop-opacity="1" stop-color="rgb(50.256348%, 48.866272%, 84.921265%)" offset="0.625"/><stop stop-opacity="1" stop-color="rgb(50.617981%, 48.500061%, 85.072327%)" offset="0.632812"/><stop stop-opacity="1" stop-color="rgb(50.979614%, 48.132324%, 85.223389%)" offset="0.640625"/><stop stop-opacity="1" stop-color="rgb(51.339722%, 47.764587%, 85.374451%)" offset="0.648438"/><stop stop-opacity="1" stop-color="rgb(51.701355%, 47.396851%, 85.525513%)" offset="0.65625"/><stop stop-opacity="1" stop-color="rgb(52.062988%, 47.029114%, 85.676575%)" offset="0.664063"/><stop stop-opacity="1" stop-color="rgb(52.423096%, 46.662903%, 85.827637%)" offset="0.671875"/><stop stop-opacity="1" stop-color="rgb(52.784729%, 46.295166%, 85.978699%)" offset="0.679688"/><stop stop-opacity="1" stop-color="rgb(53.146362%, 45.927429%, 86.129761%)" offset="0.6875"/><stop stop-opacity="1" stop-color="rgb(53.50647%, 45.559692%, 86.280823%)" offset="0.695313"/><stop stop-opacity="1" stop-color="rgb(53.868103%, 45.193481%, 86.431885%)" offset="0.703125"/><stop stop-opacity="1" stop-color="rgb(54.229736%, 44.825745%, 86.582947%)" offset="0.710938"/><stop stop-opacity="1" stop-color="rgb(54.589844%, 44.458008%, 86.734009%)" offset="0.71875"/><stop stop-opacity="1" stop-color="rgb(54.951477%, 44.090271%, 86.885071%)" offset="0.726563"/><stop stop-opacity="1" stop-color="rgb(55.31311%, 43.72406%, 87.036133%)" offset="0.730233"/><stop stop-opacity="1" stop-color="rgb(55.493164%, 43.540955%, 87.112427%)" offset="0.734375"/><stop stop-opacity="1" stop-color="rgb(55.673218%, 43.356323%, 87.187195%)" offset="0.742187"/><stop stop-opacity="1" stop-color="rgb(56.034851%, 42.988586%, 87.338257%)" offset="0.75"/><stop stop-opacity="1" stop-color="rgb(56.396484%, 42.62085%, 87.489319%)" offset="0.757813"/><stop stop-opacity="1" stop-color="rgb(56.756592%, 42.253113%, 87.640381%)" offset="0.765625"/><stop stop-opacity="1" stop-color="rgb(57.118225%, 41.886902%, 87.791443%)" offset="0.773437"/><stop stop-opacity="1" stop-color="rgb(57.479858%, 41.519165%, 87.942505%)" offset="0.78125"/><stop stop-opacity="1" stop-color="rgb(57.839966%, 41.151428%, 88.093567%)" offset="0.789062"/><stop stop-opacity="1" stop-color="rgb(58.201599%, 40.783691%, 88.244629%)" offset="0.796875"/><stop stop-opacity="1" stop-color="rgb(58.563232%, 40.41748%, 88.395691%)" offset="0.804687"/><stop stop-opacity="1" stop-color="rgb(58.92334%, 40.049744%, 88.546753%)" offset="0.8125"/><stop stop-opacity="1" stop-color="rgb(59.284973%, 39.682007%, 88.697815%)" offset="0.820312"/><stop stop-opacity="1" stop-color="rgb(59.646606%, 39.31427%, 88.848877%)" offset="0.828125"/><stop stop-opacity="1" stop-color="rgb(60.006714%, 38.948059%, 88.999939%)" offset="0.835937"/><stop stop-opacity="1" stop-color="rgb(60.368347%, 38.580322%, 89.151001%)" offset="0.84375"/><stop stop-opacity="1" stop-color="rgb(60.72998%, 38.212585%, 89.302063%)" offset="0.851562"/><stop stop-opacity="1" stop-color="rgb(61.090088%, 37.844849%, 89.453125%)" offset="0.859375"/><stop stop-opacity="1" stop-color="rgb(61.451721%, 37.477112%, 89.604187%)" offset="0.867188"/><stop stop-opacity="1" stop-color="rgb(61.811829%, 37.110901%, 89.755249%)" offset="0.875"/><stop stop-opacity="1" stop-color="rgb(62.173462%, 36.743164%, 89.906311%)" offset="0.882812"/><stop stop-opacity="1" stop-color="rgb(62.535095%, 36.375427%, 90.057373%)" offset="0.890625"/><stop stop-opacity="1" stop-color="rgb(62.895203%, 36.00769%, 90.208435%)" offset="0.898438"/><stop stop-opacity="1" stop-color="rgb(63.256836%, 35.641479%, 90.359497%)" offset="0.90625"/><stop stop-opacity="1" stop-color="rgb(63.618469%, 35.273743%, 90.510559%)" offset="0.914063"/><stop stop-opacity="1" stop-color="rgb(63.978577%, 34.906006%, 90.661621%)" offset="0.921875"/><stop stop-opacity="1" stop-color="rgb(64.34021%, 34.538269%, 90.812683%)" offset="0.929688"/><stop stop-opacity="1" stop-color="rgb(64.701843%, 34.172058%, 90.963745%)" offset="0.9375"/><stop stop-opacity="1" stop-color="rgb(65.061951%, 33.804321%, 91.114807%)" offset="0.945313"/><stop stop-opacity="1" stop-color="rgb(65.423584%, 33.436584%, 91.265869%)" offset="0.953125"/><stop stop-opacity="1" stop-color="rgb(65.785217%, 33.068848%, 91.416931%)" offset="0.960938"/><stop stop-opacity="1" stop-color="rgb(66.145325%, 32.701111%, 91.567993%)" offset="0.96875"/><stop stop-opacity="1" stop-color="rgb(66.506958%, 32.3349%, 91.719055%)" offset="0.976563"/><stop stop-opacity="1" stop-color="rgb(66.868591%, 31.967163%, 91.870117%)" offset="0.984375"/><stop stop-opacity="1" stop-color="rgb(67.228699%, 31.599426%, 92.021179%)" offset="0.992187"/><stop stop-opacity="1" stop-color="rgb(67.590332%, 31.231689%, 92.172241%)" offset="1"/></linearGradient><clipPath id="a245e08a22"><path d="M 22.566406 50 L 32 50 L 32 60 L 22.566406 60 Z M 22.566406 50 " clip-rule="nonzero"/></clipPath><clipPath id="4ab8a01841"><path d="M 22.566406 39.59375 L 32 39.59375 L 32 55 L 22.566406 55 Z M 22.566406 39.59375 " clip-rule="nonzero"/></clipPath><clipPath id="1d16558b8a"><path d="M 22.566406 56.761719 L 31.601562 56.761719 L 31.601562 69.53125 L 22.566406 69.53125 Z M 22.566406 56.761719 " clip-rule="nonzero"/></clipPath><clipPath id="4fd5b3ab75"><path d="M 31.488281 50.414062 L 40.558594 50.414062 L 40.558594 60 L 31.488281 60 Z M 31.488281 50.414062 " clip-rule="nonzero"/></clipPath><clipPath id="46ca70a417"><path d="M 31.488281 39.644531 L 40.558594 39.644531 L 40.558594 54.722656 L 31.488281 54.722656 Z M 31.488281 39.644531 " clip-rule="nonzero"/></clipPath><clipPath id="e0f5eff20d"><path d="M 31.488281 56.761719 L 40.558594 56.761719 L 40.558594 69.53125 L 31.488281 69.53125 Z M 31.488281 56.761719 " clip-rule="nonzero"/></clipPath><clipPath id="eff72093e4"><path d="M 78 45 L 84.859375 45 L 84.859375 51 L 78 51 Z M 78 45 " clip-rule="nonzero"/></clipPath><clipPath id="26eaeb7472"><path d="M 81 45 L 84.859375 45 L 84.859375 51 L 81 51 Z M 81 45 " clip-rule="nonzero"/></clipPath><clipPath id="ae2601bdfc"><path d="M 40.632812 16.53125 L 84.859375 16.53125 L 84.859375 58.507812 L 40.632812 58.507812 Z M 40.632812 16.53125 " clip-rule="nonzero"/></clipPath></defs><g clip-path="url(#1a1c8eaa54)"><path fill="#000000" d="M 21.738281 37.683594 C 21.738281 38.394531 21.667969 39.101562 21.53125 39.800781 C 21.390625 40.503906 21.183594 41.183594 20.910156 41.839844 C 20.636719 42.5 20.304688 43.128906 19.90625 43.71875 C 19.511719 44.3125 19.058594 44.863281 18.554688 45.367188 C 18.050781 45.871094 17.5 46.324219 16.90625 46.71875 C 16.3125 47.117188 15.6875 47.449219 15.027344 47.722656 C 14.371094 47.996094 13.691406 48.203125 12.988281 48.34375 C 12.289062 48.480469 11.582031 48.550781 10.871094 48.550781 C 10.15625 48.550781 9.449219 48.480469 8.75 48.34375 C 8.046875 48.203125 7.367188 47.996094 6.710938 47.722656 C 6.050781 47.449219 5.425781 47.117188 4.832031 46.71875 C 4.238281 46.324219 3.6875 45.871094 3.183594 45.367188 C 2.679688 44.863281 2.226562 44.3125 1.832031 43.71875 C 1.433594 43.128906 1.101562 42.5 0.828125 41.839844 C 0.554688 41.183594 0.347656 40.503906 0.207031 39.800781 C 0.0703125 39.101562 0 38.394531 0 37.683594 C 0 36.96875 0.0703125 36.261719 0.207031 35.5625 C 0.347656 34.863281 0.554688 34.183594 0.828125 33.523438 C 1.101562 32.863281 1.433594 32.238281 1.832031 31.644531 C 2.226562 31.050781 2.679688 30.5 3.183594 29.996094 C 3.6875 29.492188 4.238281 29.042969 4.832031 28.644531 C 5.425781 28.25 6.050781 27.914062 6.710938 27.640625 C 7.367188 27.367188 8.046875 27.160156 8.75 27.023438 C 9.449219 26.882812 10.15625 26.8125 10.871094 26.8125 C 11.582031 26.8125 12.289062 26.882812 12.988281 27.023438 C 13.691406 27.160156 14.371094 27.367188 15.027344 27.640625 C 15.6875 27.914062 16.3125 28.25 16.90625 28.644531 C 17.5 29.042969 18.050781 29.492188 18.554688 29.996094 C 19.058594 30.5 19.511719 31.050781 19.90625 31.644531 C 20.304688 32.238281 20.636719 32.863281 20.910156 33.523438 C 21.183594 34.183594 21.390625 34.863281 21.53125 35.5625 C 21.667969 36.261719 21.738281 36.96875 21.738281 37.683594 Z M 21.738281 37.683594 " fill-opacity="1" fill-rule="nonzero"/></g><g clip-path="url(#29678dc2cc)"><g clip-path="url(#e41e602d12)"><path fill="url(#934fe908b3)" d="M 3.796875 40.429688 L 3.796875 43.152344 L 17.917969 43.152344 L 17.917969 40.429688 Z M 3.796875 40.429688 " fill-rule="nonzero"/></g></g><g clip-path="url(#5953b7a3c7)"><g clip-path="url(#eaf3fa84e5)"><path fill="url(#c100c3b544)" d="M 3.796875 32.191406 L 3.796875 34.914062 L 17.917969 34.914062 L 17.917969 32.191406 Z M 3.796875 32.191406 " fill-rule="nonzero"/></g></g><g clip-path="url(#9fc7e74aa8)"><g clip-path="url(#eed3816955)"><path fill="url(#0ec75873da)" d="M 3.796875 36.285156 L 3.796875 39.007812 L 17.917969 39.007812 L 17.917969 36.285156 Z M 3.796875 36.285156 " fill-rule="nonzero"/></g></g><path fill="#f7931a" d="M 43.171875 25.160156 C 41.585938 31.53125 35.132812 35.410156 28.761719 33.820312 C 22.390625 32.230469 18.515625 25.777344 20.105469 19.410156 C 21.691406 13.039062 28.144531 9.160156 34.511719 10.75 C 40.882812 12.335938 44.761719 18.789062 43.171875 25.160156 Z M 43.171875 25.160156 " fill-opacity="1" fill-rule="nonzero"/><path fill="#ffffff" d="M 36.882812 20.589844 C 37.117188 19.007812 35.914062 18.15625 34.265625 17.589844 L 34.800781 15.445312 L 33.496094 15.121094 L 32.976562 17.207031 C 32.632812 17.121094 32.28125 17.042969 31.929688 16.960938 L 32.453125 14.863281 L 31.148438 14.535156 L 30.613281 16.679688 C 30.332031 16.613281 30.050781 16.550781 29.78125 16.484375 L 29.785156 16.476562 L 27.984375 16.027344 L 27.636719 17.421875 C 27.636719 17.421875 28.605469 17.644531 28.585938 17.65625 C 29.113281 17.789062 29.207031 18.136719 29.191406 18.414062 L 28.582031 20.855469 C 28.621094 20.867188 28.667969 20.878906 28.71875 20.902344 C 28.675781 20.890625 28.628906 20.878906 28.582031 20.867188 L 27.726562 24.285156 C 27.664062 24.449219 27.5 24.6875 27.128906 24.597656 C 27.144531 24.617188 26.183594 24.359375 26.183594 24.359375 L 25.535156 25.855469 L 27.230469 26.277344 C 27.546875 26.355469 27.859375 26.4375 28.164062 26.515625 L 27.621094 28.683594 L 28.925781 29.011719 L 29.460938 26.867188 C 29.816406 26.960938 30.160156 27.050781 30.5 27.136719 L 29.96875 29.269531 L 31.273438 29.59375 L 31.8125 27.429688 C 34.035156 27.851562 35.710938 27.683594 36.414062 25.671875 C 36.980469 24.050781 36.386719 23.117188 35.214844 22.507812 C 36.066406 22.308594 36.710938 21.75 36.882812 20.589844 Z M 33.898438 24.769531 C 33.496094 26.390625 30.769531 25.515625 29.882812 25.296875 L 30.601562 22.421875 C 31.484375 22.644531 34.320312 23.082031 33.898438 24.769531 Z M 34.304688 20.566406 C 33.9375 22.039062 31.664062 21.292969 30.929688 21.109375 L 31.578125 18.503906 C 32.316406 18.6875 34.6875 19.03125 34.304688 20.566406 Z M 34.304688 20.566406 " fill-opacity="1" fill-rule="nonzero"/><g clip-path="url(#a245e08a22)"><path fill="#1e2024" d="M 31.566406 60 L 22.566406 54.710938 L 31.566406 50.425781 Z M 31.566406 60 " fill-opacity="1" fill-rule="nonzero"/></g><g clip-path="url(#4ab8a01841)"><path fill="#999fb4" d="M 31.566406 39.644531 L 22.566406 54.710938 L 31.566406 50.425781 Z M 31.566406 39.644531 " fill-opacity="1" fill-rule="nonzero"/></g><g clip-path="url(#1d16558b8a)"><path fill="#999fb4" d="M 31.566406 69.53125 L 22.566406 56.808594 L 31.566406 62.269531 Z M 31.566406 69.53125 " fill-opacity="1" fill-rule="nonzero"/></g><g clip-path="url(#4fd5b3ab75)"><path fill="#181a1f" d="M 31.566406 60 L 40.5625 54.710938 L 31.566406 50.425781 Z M 31.566406 60 " fill-opacity="1" fill-rule="nonzero"/></g><g clip-path="url(#46ca70a417)"><path fill="#666a78" d="M 31.566406 39.644531 L 40.5625 54.710938 L 31.566406 50.425781 Z M 31.566406 39.644531 " fill-opacity="1" fill-rule="nonzero"/></g><g clip-path="url(#e0f5eff20d)"><path fill="#666a78" d="M 31.566406 69.53125 L 40.5625 56.808594 L 31.566406 62.269531 Z M 31.566406 69.53125 " fill-opacity="1" fill-rule="nonzero"/></g><g fill="#ff00ff" fill-opacity="1"><g transform="translate(90.746261, 30.867364)"><g><path d="M 7.78125 -15.578125 L 7.78125 -13 L 5.203125 -13 L 5.203125 -5.171875 L 7.78125 -5.171875 L 7.78125 -2.59375 L 12.984375 -2.59375 L 12.984375 -5.203125 L 18.171875 -5.203125 L 18.171875 -2.59375 L 15.578125 -2.59375 L 15.578125 0 L 5.203125 0 L 5.203125 -2.59375 L 2.59375 -2.59375 L 2.59375 -5.203125 L 0 -5.203125 L 0 -12.984375 L 2.59375 -12.984375 L 2.59375 -15.578125 L 5.203125 -15.578125 L 5.203125 -18.171875 L 15.578125 -18.171875 L 15.578125 -15.578125 L 18.171875 -15.578125 L 18.171875 -12.984375 L 12.984375 -12.984375 L 12.984375 -15.578125 Z M 7.78125 -15.578125 "/></g></g></g><g fill="#ff00ff" fill-opacity="1"><g transform="translate(113.322227, 30.867364)"><g><path d="M 5.203125 -10.375 L 10.390625 -10.375 L 10.390625 -15.578125 L 5.203125 -15.578125 Z M 5.203125 -7.78125 L 5.203125 0 L 0 0 L 0 -18.171875 L 12.984375 -18.171875 L 12.984375 -15.578125 L 15.578125 -15.578125 L 15.578125 -10.375 L 12.984375 -10.375 L 12.984375 -7.78125 L 15.578125 -7.78125 L 15.578125 0 L 10.375 0 L 10.375 -7.78125 Z M 5.203125 -7.78125 "/></g></g></g><g fill="#ff00ff" fill-opacity="1"><g transform="translate(133.31284, 30.867364)"><g><path d="M 10.390625 0 L 5.203125 0 L 5.203125 -10.375 L 2.59375 -10.375 L 2.59375 -12.984375 L 0 -12.984375 L 0 -18.171875 L 5.203125 -18.171875 L 5.203125 -12.984375 L 10.390625 -12.984375 L 10.390625 -18.171875 L 15.578125 -18.171875 L 15.578125 -12.984375 L 12.984375 -12.984375 L 12.984375 -10.375 L 10.390625 -10.375 Z M 10.390625 0 "/></g></g></g><g fill="#ff00ff" fill-opacity="1"><g transform="translate(153.303451, 30.867364)"><g><path d="M 5.203125 -10.375 L 10.390625 -10.375 L 10.390625 -15.578125 L 5.203125 -15.578125 Z M 12.984375 -10.375 L 12.984375 -7.78125 L 5.203125 -7.78125 L 5.203125 0 L 0 0 L 0 -18.171875 L 12.984375 -18.171875 L 12.984375 -15.578125 L 15.578125 -15.578125 L 15.578125 -10.375 Z M 12.984375 -10.375 "/></g></g></g><g fill="#ff00ff" fill-opacity="1"><g transform="translate(173.294068, 30.867364)"><g><path d="M 0 -18.171875 L 15.578125 -18.171875 L 15.578125 -15.578125 L 10.390625 -15.578125 L 10.390625 0 L 5.203125 0 L 5.203125 -15.578125 L 0 -15.578125 Z M 0 -18.171875 "/></g></g></g><g fill="#ff00ff" fill-opacity="1"><g transform="translate(193.284684, 30.867364)"><g><path d="M 2.59375 -12.984375 L 2.59375 -15.578125 L 5.203125 -15.578125 L 5.203125 -18.171875 L 15.578125 -18.171875 L 15.578125 -15.578125 L 18.171875 -15.578125 L 18.171875 -12.984375 L 20.75 -12.984375 L 20.75 -5.203125 L 18.171875 -5.203125 L 18.171875 -2.59375 L 15.578125 -2.59375 L 15.578125 0 L 5.203125 0 L 5.203125 -2.59375 L 2.59375 -2.59375 L 2.59375 -5.203125 L 0 -5.203125 L 0 -12.984375 Z M 12.984375 -12.984375 L 12.984375 -15.578125 L 7.78125 -15.578125 L 7.78125 -13 L 5.203125 -13 L 5.203125 -5.171875 L 7.78125 -5.171875 L 7.78125 -2.59375 L 12.984375 -2.59375 L 12.984375 -5.203125 L 15.578125 -5.203125 L 15.578125 -12.984375 Z M 12.984375 -12.984375 "/></g></g></g><g fill="#00ffff" fill-opacity="1"><g transform="translate(89.772806, 30.867364)"><g><path d="M 7.78125 -15.578125 L 7.78125 -13 L 5.203125 -13 L 5.203125 -5.171875 L 7.78125 -5.171875 L 7.78125 -2.59375 L 12.984375 -2.59375 L 12.984375 -5.203125 L 18.171875 -5.203125 L 18.171875 -2.59375 L 15.578125 -2.59375 L 15.578125 0 L 5.203125 0 L 5.203125 -2.59375 L 2.59375 -2.59375 L 2.59375 -5.203125 L 0 -5.203125 L 0 -12.984375 L 2.59375 -12.984375 L 2.59375 -15.578125 L 5.203125 -15.578125 L 5.203125 -18.171875 L 15.578125 -18.171875 L 15.578125 -15.578125 L 18.171875 -15.578125 L 18.171875 -12.984375 L 12.984375 -12.984375 L 12.984375 -15.578125 Z M 7.78125 -15.578125 "/></g></g></g><g fill="#00ffff" fill-opacity="1"><g transform="translate(112.348771, 30.867364)"><g><path d="M 5.203125 -10.375 L 10.390625 -10.375 L 10.390625 -15.578125 L 5.203125 -15.578125 Z M 5.203125 -7.78125 L 5.203125 0 L 0 0 L 0 -18.171875 L 12.984375 -18.171875 L 12.984375 -15.578125 L 15.578125 -15.578125 L 15.578125 -10.375 L 12.984375 -10.375 L 12.984375 -7.78125 L 15.578125 -7.78125 L 15.578125 0 L 10.375 0 L 10.375 -7.78125 Z M 5.203125 -7.78125 "/></g></g></g><g fill="#00ffff" fill-opacity="1"><g transform="translate(132.339385, 30.867364)"><g><path d="M 10.390625 0 L 5.203125 0 L 5.203125 -10.375 L 2.59375 -10.375 L 2.59375 -12.984375 L 0 -12.984375 L 0 -18.171875 L 5.203125 -18.171875 L 5.203125 -12.984375 L 10.390625 -12.984375 L 10.390625 -18.171875 L 15.578125 -18.171875 L 15.578125 -12.984375 L 12.984375 -12.984375 L 12.984375 -10.375 L 10.390625 -10.375 Z M 10.390625 0 "/></g></g></g><g fill="#00ffff" fill-opacity="1"><g transform="translate(152.329995, 30.867364)"><g><path d="M 5.203125 -10.375 L 10.390625 -10.375 L 10.390625 -15.578125 L 5.203125 -15.578125 Z M 12.984375 -10.375 L 12.984375 -7.78125 L 5.203125 -7.78125 L 5.203125 0 L 0 0 L 0 -18.171875 L 12.984375 -18.171875 L 12.984375 -15.578125 L 15.578125 -15.578125 L 15.578125 -10.375 Z M 12.984375 -10.375 "/></g></g></g><g fill="#00ffff" fill-opacity="1"><g transform="translate(172.320612, 30.867364)"><g><path d="M 0 -18.171875 L 15.578125 -18.171875 L 15.578125 -15.578125 L 10.390625 -15.578125 L 10.390625 0 L 5.203125 0 L 5.203125 -15.578125 L 0 -15.578125 Z M 0 -18.171875 "/></g></g></g><g fill="#00ffff" fill-opacity="1"><g transform="translate(192.311229, 30.867364)"><g><path d="M 2.59375 -12.984375 L 2.59375 -15.578125 L 5.203125 -15.578125 L 5.203125 -18.171875 L 15.578125 -18.171875 L 15.578125 -15.578125 L 18.171875 -15.578125 L 18.171875 -12.984375 L 20.75 -12.984375 L 20.75 -5.203125 L 18.171875 -5.203125 L 18.171875 -2.59375 L 15.578125 -2.59375 L 15.578125 0 L 5.203125 0 L 5.203125 -2.59375 L 2.59375 -2.59375 L 2.59375 -5.203125 L 0 -5.203125 L 0 -12.984375 Z M 12.984375 -12.984375 L 12.984375 -15.578125 L 7.78125 -15.578125 L 7.78125 -13 L 5.203125 -13 L 5.203125 -5.171875 L 7.78125 -5.171875 L 7.78125 -2.59375 L 12.984375 -2.59375 L 12.984375 -5.203125 L 15.578125 -5.203125 L 15.578125 -12.984375 Z M 12.984375 -12.984375 "/></g></g></g><g fill="#c67de0" fill-opacity="1"><g transform="translate(90.259532, 30.867364)"><g><path d="M 7.78125 -15.578125 L 7.78125 -13 L 5.203125 -13 L 5.203125 -5.171875 L 7.78125 -5.171875 L 7.78125 -2.59375 L 12.984375 -2.59375 L 12.984375 -5.203125 L 18.171875 -5.203125 L 18.171875 -2.59375 L 15.578125 -2.59375 L 15.578125 0 L 5.203125 0 L 5.203125 -2.59375 L 2.59375 -2.59375 L 2.59375 -5.203125 L 0 -5.203125 L 0 -12.984375 L 2.59375 -12.984375 L 2.59375 -15.578125 L 5.203125 -15.578125 L 5.203125 -18.171875 L 15.578125 -18.171875 L 15.578125 -15.578125 L 18.171875 -15.578125 L 18.171875 -12.984375 L 12.984375 -12.984375 L 12.984375 -15.578125 Z M 7.78125 -15.578125 "/></g></g></g><g fill="#c67de0" fill-opacity="1"><g transform="translate(112.835498, 30.867364)"><g><path d="M 5.203125 -10.375 L 10.390625 -10.375 L 10.390625 -15.578125 L 5.203125 -15.578125 Z M 5.203125 -7.78125 L 5.203125 0 L 0 0 L 0 -18.171875 L 12.984375 -18.171875 L 12.984375 -15.578125 L 15.578125 -15.578125 L 15.578125 -10.375 L 12.984375 -10.375 L 12.984375 -7.78125 L 15.578125 -7.78125 L 15.578125 0 L 10.375 0 L 10.375 -7.78125 Z M 5.203125 -7.78125 "/></g></g></g><g fill="#c67de0" fill-opacity="1"><g transform="translate(132.826111, 30.867364)"><g><path d="M 10.390625 0 L 5.203125 0 L 5.203125 -10.375 L 2.59375 -10.375 L 2.59375 -12.984375 L 0 -12.984375 L 0 -18.171875 L 5.203125 -18.171875 L 5.203125 -12.984375 L 10.390625 -12.984375 L 10.390625 -18.171875 L 15.578125 -18.171875 L 15.578125 -12.984375 L 12.984375 -12.984375 L 12.984375 -10.375 L 10.390625 -10.375 Z M 10.390625 0 "/></g></g></g><g fill="#c67de0" fill-opacity="1"><g transform="translate(152.816722, 30.867364)"><g><path d="M 5.203125 -10.375 L 10.390625 -10.375 L 10.390625 -15.578125 L 5.203125 -15.578125 Z M 12.984375 -10.375 L 12.984375 -7.78125 L 5.203125 -7.78125 L 5.203125 0 L 0 0 L 0 -18.171875 L 12.984375 -18.171875 L 12.984375 -15.578125 L 15.578125 -15.578125 L 15.578125 -10.375 Z M 12.984375 -10.375 "/></g></g></g><g fill="#c67de0" fill-opacity="1"><g transform="translate(172.807339, 30.867364)"><g><path d="M 0 -18.171875 L 15.578125 -18.171875 L 15.578125 -15.578125 L 10.390625 -15.578125 L 10.390625 0 L 5.203125 0 L 5.203125 -15.578125 L 0 -15.578125 Z M 0 -18.171875 "/></g></g></g><g fill="#c67de0" fill-opacity="1"><g transform="translate(192.797955, 30.867364)"><g><path d="M 2.59375 -12.984375 L 2.59375 -15.578125 L 5.203125 -15.578125 L 5.203125 -18.171875 L 15.578125 -18.171875 L 15.578125 -15.578125 L 18.171875 -15.578125 L 18.171875 -12.984375 L 20.75 -12.984375 L 20.75 -5.203125 L 18.171875 -5.203125 L 18.171875 -2.59375 L 15.578125 -2.59375 L 15.578125 0 L 5.203125 0 L 5.203125 -2.59375 L 2.59375 -2.59375 L 2.59375 -5.203125 L 0 -5.203125 L 0 -12.984375 Z M 12.984375 -12.984375 L 12.984375 -15.578125 L 7.78125 -15.578125 L 7.78125 -13 L 5.203125 -13 L 5.203125 -5.171875 L 7.78125 -5.171875 L 7.78125 -2.59375 L 12.984375 -2.59375 L 12.984375 -5.203125 L 15.578125 -5.203125 L 15.578125 -12.984375 Z M 12.984375 -12.984375 "/></g></g></g><g fill="#ff00ff" fill-opacity="1"><g transform="translate(87.506913, 61.373425)"><g><path d="M 15.578125 -15.578125 L 15.578125 -12.984375 L 12.984375 -12.984375 L 12.984375 -15.578125 L 5.203125 -15.578125 L 5.203125 -18.171875 L 12.984375 -18.171875 L 12.984375 -15.578125 Z M 5.203125 -5.171875 L 5.203125 -2.59375 L 12.984375 -2.59375 L 12.984375 0 L 5.203125 0 L 5.203125 -2.59375 L 2.59375 -2.59375 L 2.59375 -5.171875 Z M 2.59375 -12.984375 L 2.59375 -5.203125 L 0 -5.203125 L 0 -12.984375 Z M 12.984375 -2.59375 L 12.984375 -5.203125 L 15.578125 -5.203125 L 15.578125 -2.59375 Z M 5.203125 -13 L 2.59375 -13 L 2.59375 -15.578125 L 5.203125 -15.578125 Z M 5.203125 -13 "/></g></g></g><g fill="#ff00ff" fill-opacity="1"><g transform="translate(108.265762, 61.373425)"><g><path d="M 2.59375 -5.203125 L 0 -5.203125 L 0 -12.984375 L 2.59375 -12.984375 L 2.59375 -15.578125 L 5.203125 -15.578125 L 5.203125 -18.171875 L 12.984375 -18.171875 L 12.984375 -15.578125 L 15.578125 -15.578125 L 15.578125 -12.984375 L 18.171875 -12.984375 L 18.171875 -5.203125 L 15.578125 -5.203125 L 15.578125 -2.59375 L 12.984375 -2.59375 L 12.984375 0 L 5.203125 0 L 5.203125 -2.59375 L 2.59375 -2.59375 Z M 5.203125 -2.625 L 12.984375 -2.625 L 12.984375 -5.203125 L 15.546875 -5.203125 L 15.546875 -12.984375 L 12.984375 -12.984375 L 12.984375 -15.546875 L 5.203125 -15.546875 L 5.203125 -12.984375 L 2.625 -12.984375 L 2.625 -5.203125 L 5.203125 -5.203125 Z M 5.203125 -2.625 "/></g></g></g><g fill="#ff00ff" fill-opacity="1"><g transform="translate(131.622636, 61.373425)"><g><path d="M 10.375 -2.59375 L 10.375 0 L 0 0 L 0 -18.171875 L 2.578125 -18.171875 L 2.578125 -2.59375 Z M 10.375 -2.59375 "/></g></g></g><g fill="#ff00ff" fill-opacity="1"><g transform="translate(147.198109, 61.373425)"><g><path d="M 10.375 -2.59375 L 10.375 0 L 0 0 L 0 -18.171875 L 2.578125 -18.171875 L 2.578125 -2.59375 Z M 10.375 -2.59375 "/></g></g></g><g fill="#ff00ff" fill-opacity="1"><g transform="translate(162.773582, 61.373425)"><g><path d="M 2.59375 -2.59375 L 12.984375 -2.59375 L 12.984375 0 L 0 0 L 0 -18.171875 L 12.984375 -18.171875 L 12.984375 -15.578125 L 2.59375 -15.578125 L 2.59375 -10.375 L 10.375 -10.375 L 10.375 -7.78125 L 2.59375 -7.78125 Z M 2.59375 -2.59375 "/></g></g></g><g fill="#ff00ff" fill-opacity="1"><g transform="translate(180.94708, 61.373425)"><g><path d="M 7.78125 -10.375 L 15.578125 -10.375 L 15.578125 0 L 5.203125 0 L 5.203125 -2.59375 L 2.59375 -2.59375 L 2.59375 -5.171875 L 5.203125 -5.171875 L 5.203125 -2.59375 L 12.984375 -2.59375 L 12.984375 -7.78125 L 7.78125 -7.78125 Z M 15.578125 -15.578125 L 15.578125 -12.984375 L 12.984375 -12.984375 L 12.984375 -15.578125 L 5.203125 -15.578125 L 5.203125 -18.171875 L 12.984375 -18.171875 L 12.984375 -15.578125 Z M 2.59375 -12.984375 L 2.59375 -5.203125 L 0 -5.203125 L 0 -12.984375 Z M 5.203125 -13 L 2.59375 -13 L 2.59375 -15.578125 L 5.203125 -15.578125 Z M 5.203125 -13 "/></g></g></g><g fill="#ff00ff" fill-opacity="1"><g transform="translate(201.705928, 61.373425)"><g><path d="M 2.59375 -2.59375 L 12.984375 -2.59375 L 12.984375 0 L 0 0 L 0 -18.171875 L 12.984375 -18.171875 L 12.984375 -15.578125 L 2.59375 -15.578125 L 2.59375 -10.375 L 10.375 -10.375 L 10.375 -7.78125 L 2.59375 -7.78125 Z M 2.59375 -2.59375 "/></g></g></g><g fill="#00ffff" fill-opacity="1"><g transform="translate(86.533458, 61.373425)"><g><path d="M 15.578125 -15.578125 L 15.578125 -12.984375 L 12.984375 -12.984375 L 12.984375 -15.578125 L 5.203125 -15.578125 L 5.203125 -18.171875 L 12.984375 -18.171875 L 12.984375 -15.578125 Z M 5.203125 -5.171875 L 5.203125 -2.59375 L 12.984375 -2.59375 L 12.984375 0 L 5.203125 0 L 5.203125 -2.59375 L 2.59375 -2.59375 L 2.59375 -5.171875 Z M 2.59375 -12.984375 L 2.59375 -5.203125 L 0 -5.203125 L 0 -12.984375 Z M 12.984375 -2.59375 L 12.984375 -5.203125 L 15.578125 -5.203125 L 15.578125 -2.59375 Z M 5.203125 -13 L 2.59375 -13 L 2.59375 -15.578125 L 5.203125 -15.578125 Z M 5.203125 -13 "/></g></g></g><g fill="#00ffff" fill-opacity="1"><g transform="translate(107.292306, 61.373425)"><g><path d="M 2.59375 -5.203125 L 0 -5.203125 L 0 -12.984375 L 2.59375 -12.984375 L 2.59375 -15.578125 L 5.203125 -15.578125 L 5.203125 -18.171875 L 12.984375 -18.171875 L 12.984375 -15.578125 L 15.578125 -15.578125 L 15.578125 -12.984375 L 18.171875 -12.984375 L 18.171875 -5.203125 L 15.578125 -5.203125 L 15.578125 -2.59375 L 12.984375 -2.59375 L 12.984375 0 L 5.203125 0 L 5.203125 -2.59375 L 2.59375 -2.59375 Z M 5.203125 -2.625 L 12.984375 -2.625 L 12.984375 -5.203125 L 15.546875 -5.203125 L 15.546875 -12.984375 L 12.984375 -12.984375 L 12.984375 -15.546875 L 5.203125 -15.546875 L 5.203125 -12.984375 L 2.625 -12.984375 L 2.625 -5.203125 L 5.203125 -5.203125 Z M 5.203125 -2.625 "/></g></g></g><g fill="#00ffff" fill-opacity="1"><g transform="translate(130.64918, 61.373425)"><g><path d="M 10.375 -2.59375 L 10.375 0 L 0 0 L 0 -18.171875 L 2.578125 -18.171875 L 2.578125 -2.59375 Z M 10.375 -2.59375 "/></g></g></g><g fill="#00ffff" fill-opacity="1"><g transform="translate(146.224653, 61.373425)"><g><path d="M 10.375 -2.59375 L 10.375 0 L 0 0 L 0 -18.171875 L 2.578125 -18.171875 L 2.578125 -2.59375 Z M 10.375 -2.59375 "/></g></g></g><g fill="#00ffff" fill-opacity="1"><g transform="translate(161.800126, 61.373425)"><g><path d="M 2.59375 -2.59375 L 12.984375 -2.59375 L 12.984375 0 L 0 0 L 0 -18.171875 L 12.984375 -18.171875 L 12.984375 -15.578125 L 2.59375 -15.578125 L 2.59375 -10.375 L 10.375 -10.375 L 10.375 -7.78125 L 2.59375 -7.78125 Z M 2.59375 -2.59375 "/></g></g></g><g fill="#00ffff" fill-opacity="1"><g transform="translate(179.973624, 61.373425)"><g><path d="M 7.78125 -10.375 L 15.578125 -10.375 L 15.578125 0 L 5.203125 0 L 5.203125 -2.59375 L 2.59375 -2.59375 L 2.59375 -5.171875 L 5.203125 -5.171875 L 5.203125 -2.59375 L 12.984375 -2.59375 L 12.984375 -7.78125 L 7.78125 -7.78125 Z M 15.578125 -15.578125 L 15.578125 -12.984375 L 12.984375 -12.984375 L 12.984375 -15.578125 L 5.203125 -15.578125 L 5.203125 -18.171875 L 12.984375 -18.171875 L 12.984375 -15.578125 Z M 2.59375 -12.984375 L 2.59375 -5.203125 L 0 -5.203125 L 0 -12.984375 Z M 5.203125 -13 L 2.59375 -13 L 2.59375 -15.578125 L 5.203125 -15.578125 Z M 5.203125 -13 "/></g></g></g><g fill="#00ffff" fill-opacity="1"><g transform="translate(200.732473, 61.373425)"><g><path d="M 2.59375 -2.59375 L 12.984375 -2.59375 L 12.984375 0 L 0 0 L 0 -18.171875 L 12.984375 -18.171875 L 12.984375 -15.578125 L 2.59375 -15.578125 L 2.59375 -10.375 L 10.375 -10.375 L 10.375 -7.78125 L 2.59375 -7.78125 Z M 2.59375 -2.59375 "/></g></g></g><g fill="#7edaf2" fill-opacity="1"><g transform="translate(87.020184, 61.373425)"><g><path d="M 15.578125 -15.578125 L 15.578125 -12.984375 L 12.984375 -12.984375 L 12.984375 -15.578125 L 5.203125 -15.578125 L 5.203125 -18.171875 L 12.984375 -18.171875 L 12.984375 -15.578125 Z M 5.203125 -5.171875 L 5.203125 -2.59375 L 12.984375 -2.59375 L 12.984375 0 L 5.203125 0 L 5.203125 -2.59375 L 2.59375 -2.59375 L 2.59375 -5.171875 Z M 2.59375 -12.984375 L 2.59375 -5.203125 L 0 -5.203125 L 0 -12.984375 Z M 12.984375 -2.59375 L 12.984375 -5.203125 L 15.578125 -5.203125 L 15.578125 -2.59375 Z M 5.203125 -13 L 2.59375 -13 L 2.59375 -15.578125 L 5.203125 -15.578125 Z M 5.203125 -13 "/></g></g></g><g fill="#7edaf2" fill-opacity="1"><g transform="translate(107.779033, 61.373425)"><g><path d="M 2.59375 -5.203125 L 0 -5.203125 L 0 -12.984375 L 2.59375 -12.984375 L 2.59375 -15.578125 L 5.203125 -15.578125 L 5.203125 -18.171875 L 12.984375 -18.171875 L 12.984375 -15.578125 L 15.578125 -15.578125 L 15.578125 -12.984375 L 18.171875 -12.984375 L 18.171875 -5.203125 L 15.578125 -5.203125 L 15.578125 -2.59375 L 12.984375 -2.59375 L 12.984375 0 L 5.203125 0 L 5.203125 -2.59375 L 2.59375 -2.59375 Z M 5.203125 -2.625 L 12.984375 -2.625 L 12.984375 -5.203125 L 15.546875 -5.203125 L 15.546875 -12.984375 L 12.984375 -12.984375 L 12.984375 -15.546875 L 5.203125 -15.546875 L 5.203125 -12.984375 L 2.625 -12.984375 L 2.625 -5.203125 L 5.203125 -5.203125 Z M 5.203125 -2.625 "/></g></g></g><g fill="#7edaf2" fill-opacity="1"><g transform="translate(131.135907, 61.373425)"><g><path d="M 10.375 -2.59375 L 10.375 0 L 0 0 L 0 -18.171875 L 2.578125 -18.171875 L 2.578125 -2.59375 Z M 10.375 -2.59375 "/></g></g></g><g fill="#7edaf2" fill-opacity="1"><g transform="translate(146.71138, 61.373425)"><g><path d="M 10.375 -2.59375 L 10.375 0 L 0 0 L 0 -18.171875 L 2.578125 -18.171875 L 2.578125 -2.59375 Z M 10.375 -2.59375 "/></g></g></g><g fill="#7edaf2" fill-opacity="1"><g transform="translate(162.286853, 61.373425)"><g><path d="M 2.59375 -2.59375 L 12.984375 -2.59375 L 12.984375 0 L 0 0 L 0 -18.171875 L 12.984375 -18.171875 L 12.984375 -15.578125 L 2.59375 -15.578125 L 2.59375 -10.375 L 10.375 -10.375 L 10.375 -7.78125 L 2.59375 -7.78125 Z M 2.59375 -2.59375 "/></g></g></g><g fill="#7edaf2" fill-opacity="1"><g transform="translate(180.460351, 61.373425)"><g><path d="M 7.78125 -10.375 L 15.578125 -10.375 L 15.578125 0 L 5.203125 0 L 5.203125 -2.59375 L 2.59375 -2.59375 L 2.59375 -5.171875 L 5.203125 -5.171875 L 5.203125 -2.59375 L 12.984375 -2.59375 L 12.984375 -7.78125 L 7.78125 -7.78125 Z M 15.578125 -15.578125 L 15.578125 -12.984375 L 12.984375 -12.984375 L 12.984375 -15.578125 L 5.203125 -15.578125 L 5.203125 -18.171875 L 12.984375 -18.171875 L 12.984375 -15.578125 Z M 2.59375 -12.984375 L 2.59375 -5.203125 L 0 -5.203125 L 0 -12.984375 Z M 5.203125 -13 L 2.59375 -13 L 2.59375 -15.578125 L 5.203125 -15.578125 Z M 5.203125 -13 "/></g></g></g><g fill="#7edaf2" fill-opacity="1"><g transform="translate(201.219199, 61.373425)"><g><path d="M 2.59375 -2.59375 L 12.984375 -2.59375 L 12.984375 0 L 0 0 L 0 -18.171875 L 12.984375 -18.171875 L 12.984375 -15.578125 L 2.59375 -15.578125 L 2.59375 -10.375 L 10.375 -10.375 L 10.375 -7.78125 L 2.59375 -7.78125 Z M 2.59375 -2.59375 "/></g></g></g><g clip-path="url(#eff72093e4)"><path fill="#fec165" d="M 78.894531 47.769531 L 78.894531 45.699219 C 78.894531 45.375 79.160156 45.117188 79.480469 45.117188 L 83.519531 45.117188 C 83.929688 45.117188 84.214844 45.527344 84.070312 45.90625 L 83.441406 47.5625 C 83.390625 47.691406 83.390625 47.84375 83.441406 47.972656 L 84.070312 49.628906 C 84.214844 50.015625 83.929688 50.417969 83.519531 50.417969 L 79.480469 50.417969 C 79.152344 50.417969 78.894531 50.152344 78.894531 49.835938 Z M 78.894531 47.769531 " fill-opacity="1" fill-rule="nonzero"/></g><path fill="#fec165" d="M 46.605469 47.769531 L 46.605469 45.699219 C 46.605469 45.375 46.339844 45.117188 46.023438 45.117188 L 41.984375 45.117188 C 41.570312 45.117188 41.285156 45.527344 41.433594 45.90625 L 42.058594 47.5625 C 42.113281 47.691406 42.113281 47.84375 42.058594 47.972656 L 41.433594 49.628906 C 41.285156 50.015625 41.570312 50.417969 41.984375 50.417969 L 46.023438 50.417969 C 46.347656 50.417969 46.605469 50.152344 46.605469 49.835938 Z M 46.605469 47.769531 " fill-opacity="1" fill-rule="nonzero"/><g clip-path="url(#26eaeb7472)"><path fill="#fdb441" d="M 84.078125 49.628906 C 84.222656 50.015625 83.941406 50.417969 83.527344 50.417969 L 81.507812 50.417969 C 81.921875 50.417969 82.203125 50.007812 82.058594 49.628906 L 81.429688 47.972656 C 81.378906 47.84375 81.378906 47.691406 81.429688 47.5625 L 82.058594 45.90625 C 82.203125 45.519531 81.921875 45.117188 81.507812 45.117188 L 83.527344 45.117188 C 83.941406 45.117188 84.222656 45.527344 84.078125 45.90625 L 83.449219 47.5625 C 83.398438 47.691406 83.398438 47.835938 83.449219 47.972656 Z M 84.078125 49.628906 " fill-opacity="1" fill-rule="nonzero"/></g><path fill="#fdb441" d="M 46.605469 45.699219 L 46.605469 49.835938 C 46.605469 50.160156 46.339844 50.417969 46.023438 50.417969 L 43.992188 50.417969 C 44.320312 50.417969 44.578125 50.152344 44.578125 49.835938 L 44.578125 45.699219 C 44.578125 45.375 44.3125 45.117188 43.992188 45.117188 L 46.015625 45.117188 C 46.339844 45.117188 46.605469 45.375 46.605469 45.699219 Z M 46.605469 45.699219 " fill-opacity="1" fill-rule="nonzero"/><path fill="#c8effe" d="M 58.960938 17.53125 C 55.769531 17.992188 51.273438 18.761719 48.265625 19.777344 C 47.921875 19.898438 47.691406 20.210938 47.691406 20.582031 L 47.691406 43.574219 C 47.691406 47.179688 49.410156 50.613281 52.445312 52.960938 C 54.816406 54.800781 58.175781 56.703125 62.757812 57.867188 C 67.332031 56.703125 70.695312 54.800781 73.074219 52.960938 C 76.109375 50.613281 77.828125 47.179688 77.828125 43.574219 L 77.828125 20.570312 C 77.828125 20.210938 77.597656 19.886719 77.253906 19.769531 C 74.226562 18.761719 69.730469 17.992188 66.542969 17.53125 C 64.03125 17.171875 61.46875 17.171875 58.960938 17.53125 Z M 58.960938 17.53125 " fill-opacity="1" fill-rule="nonzero"/><path fill="#99e6fc" d="M 77.8125 20.570312 L 77.8125 43.5625 C 77.8125 47.167969 76.09375 50.605469 73.058594 52.953125 C 71.3125 54.304688 69.035156 55.6875 66.128906 56.800781 C 68.234375 55.808594 69.953125 54.664062 71.347656 53.550781 C 74.382812 51.117188 76.101562 47.546875 76.101562 43.804688 L 76.101562 19.914062 C 76.101562 19.707031 76.03125 19.511719 75.910156 19.367188 C 76.375 19.496094 76.824219 19.632812 77.242188 19.777344 C 77.578125 19.886719 77.8125 20.210938 77.8125 20.570312 Z M 77.8125 20.570312 " fill-opacity="1" fill-rule="nonzero"/><path fill="#f9f7f8" d="M 59.664062 20.605469 C 56.992188 20.992188 53.183594 21.640625 50.734375 22.511719 C 50.585938 22.5625 50.492188 22.699219 50.492188 22.851562 L 50.492188 43.101562 C 50.492188 46.035156 51.894531 48.835938 54.359375 50.742188 C 56.296875 52.238281 59.027344 53.78125 62.75 54.730469 C 66.472656 53.78125 69.207031 52.238281 71.140625 50.742188 C 73.609375 48.835938 75.007812 46.035156 75.007812 43.101562 L 75.007812 22.851562 C 75.007812 22.699219 74.914062 22.5625 74.769531 22.511719 C 72.316406 21.648438 68.511719 20.992188 65.835938 20.605469 C 63.789062 20.316406 61.710938 20.316406 59.664062 20.605469 Z M 59.664062 20.605469 " fill-opacity="1" fill-rule="nonzero"/><path fill="#efedef" d="M 75.007812 22.851562 L 75.007812 43.101562 C 75.007812 46.035156 73.609375 48.835938 71.140625 50.742188 C 69.464844 52.03125 67.1875 53.371094 64.1875 54.320312 C 66.359375 53.414062 68.082031 52.3125 69.421875 51.246094 C 71.886719 49.261719 73.289062 46.359375 73.289062 43.316406 L 73.289062 22.296875 C 73.289062 22.195312 73.246094 22.101562 73.1875 22.03125 C 73.753906 22.1875 74.285156 22.347656 74.769531 22.519531 C 74.914062 22.5625 75.007812 22.699219 75.007812 22.851562 Z M 75.007812 22.851562 " fill-opacity="1" fill-rule="nonzero"/><path fill="#fedba6" d="M 80.261719 47.144531 L 45.242188 47.144531 C 44.949219 47.144531 44.707031 46.90625 44.707031 46.613281 L 44.707031 40.078125 C 44.707031 39.789062 44.949219 39.546875 45.242188 39.546875 L 80.261719 39.546875 C 80.554688 39.546875 80.792969 39.789062 80.792969 40.078125 L 80.792969 46.613281 C 80.792969 46.90625 80.554688 47.144531 80.261719 47.144531 Z M 80.261719 47.144531 " fill-opacity="1" fill-rule="nonzero"/><path fill="#fece85" d="M 80.792969 40.078125 L 80.792969 46.613281 C 80.792969 46.90625 80.5625 47.144531 80.269531 47.144531 L 78.550781 47.144531 C 78.84375 47.144531 79.074219 46.90625 79.074219 46.613281 L 79.074219 40.078125 C 79.074219 39.789062 78.84375 39.546875 78.550781 39.546875 L 80.269531 39.546875 C 80.554688 39.558594 80.792969 39.789062 80.792969 40.078125 Z M 80.792969 40.078125 " fill-opacity="1" fill-rule="nonzero"/><path fill="#8d9ca8" d="M 62.226562 29.304688 L 56.707031 29.304688 L 56.707031 33.867188 C 56.707031 34.164062 56.90625 34.429688 57.1875 34.515625 C 57.660156 34.660156 58.316406 34.867188 58.410156 34.890625 C 61.066406 35.660156 64.769531 35.695312 67.359375 34.421875 C 67.589844 34.3125 67.738281 34.070312 67.738281 33.816406 L 67.738281 29.304688 Z M 62.226562 29.304688 " fill-opacity="1" fill-rule="nonzero"/><path fill="#7a8c98" d="M 67.738281 29.304688 L 67.738281 33.816406 C 67.738281 34.070312 67.589844 34.3125 67.367188 34.421875 C 66.917969 34.644531 66.429688 34.824219 65.921875 34.96875 C 65.984375 34.867188 66.015625 34.746094 66.015625 34.617188 L 66.015625 29.296875 Z M 67.738281 29.304688 " fill-opacity="1" fill-rule="nonzero"/><path fill="#596c76" d="M 61.890625 24.289062 L 53.054688 28.003906 C 52.917969 28.066406 52.917969 28.253906 53.054688 28.304688 L 61.890625 32.03125 C 62.105469 32.113281 62.347656 32.113281 62.554688 32.03125 L 71.390625 28.3125 C 71.527344 28.253906 71.527344 28.066406 71.390625 28.011719 L 62.554688 24.296875 C 62.339844 24.203125 62.105469 24.203125 61.890625 24.289062 Z M 61.890625 24.289062 " fill-opacity="1" fill-rule="nonzero"/><path fill="#465a61" d="M 71.390625 28.3125 L 62.554688 32.03125 C 62.339844 32.125 62.097656 32.125 61.890625 32.03125 L 60.558594 31.464844 L 68.0625 28.3125 C 68.199219 28.253906 68.199219 28.066406 68.0625 28.011719 L 60.558594 24.859375 L 61.890625 24.296875 C 62.105469 24.210938 62.347656 24.210938 62.554688 24.296875 L 71.390625 28.011719 C 71.527344 28.066406 71.527344 28.253906 71.390625 28.3125 Z M 71.390625 28.3125 " fill-opacity="1" fill-rule="nonzero"/><path fill="#596c76" d="M 71.492188 35.71875 C 70.910156 35.71875 70.4375 35.25 70.4375 34.667969 L 70.4375 33.421875 C 70.4375 32.839844 70.910156 32.371094 71.492188 32.371094 C 72.078125 32.371094 72.550781 32.839844 72.550781 33.421875 L 72.550781 34.667969 C 72.550781 35.25 72.078125 35.71875 71.492188 35.71875 Z M 71.492188 35.71875 " fill-opacity="1" fill-rule="nonzero"/><path fill="#000000" d="M 59.914062 44.503906 C 59.90625 44.503906 59.90625 44.503906 59.914062 44.503906 C 59.699219 44.503906 59.484375 44.503906 59.285156 44.503906 L 59.285156 41.546875 C 59.285156 41.199219 58.996094 40.90625 58.640625 40.90625 C 58.289062 40.90625 57.996094 41.199219 57.996094 41.546875 L 57.996094 45.144531 C 57.996094 45.453125 58.21875 45.726562 58.53125 45.777344 C 58.574219 45.785156 58.605469 45.785156 59.019531 45.785156 C 59.21875 45.785156 59.5 45.785156 59.914062 45.785156 C 60.265625 45.785156 60.558594 45.496094 60.558594 45.144531 C 60.550781 44.785156 60.265625 44.503906 59.914062 44.503906 Z M 59.914062 44.503906 " fill-opacity="1" fill-rule="nonzero"/><path fill="#000000" d="M 64.101562 44.503906 C 63.886719 44.503906 63.671875 44.503906 63.472656 44.503906 L 63.472656 41.546875 C 63.472656 41.199219 63.179688 40.90625 62.828125 40.90625 C 62.476562 40.90625 62.183594 41.199219 62.183594 41.546875 L 62.183594 45.144531 C 62.183594 45.453125 62.40625 45.726562 62.714844 45.777344 C 62.757812 45.785156 62.792969 45.785156 63.207031 45.785156 C 63.402344 45.785156 63.6875 45.785156 64.101562 45.785156 C 64.453125 45.785156 64.746094 45.496094 64.746094 45.144531 C 64.746094 44.785156 64.460938 44.503906 64.101562 44.503906 Z M 64.101562 44.503906 " fill-opacity="1" fill-rule="nonzero"/><path fill="#000000" d="M 68.210938 42.222656 C 68.5625 42.222656 68.855469 41.933594 68.855469 41.582031 C 68.855469 41.230469 68.5625 40.941406 68.210938 40.941406 L 66.695312 40.941406 C 66.34375 40.941406 66.050781 41.230469 66.050781 41.582031 L 66.050781 45.152344 C 66.050781 45.503906 66.34375 45.792969 66.695312 45.792969 L 68.210938 45.792969 C 68.5625 45.792969 68.855469 45.503906 68.855469 45.152344 C 68.855469 44.804688 68.5625 44.511719 68.210938 44.511719 L 67.339844 44.511719 L 67.339844 44.007812 L 68.097656 44.007812 C 68.449219 44.007812 68.742188 43.71875 68.742188 43.367188 C 68.742188 43.015625 68.449219 42.726562 68.097656 42.726562 L 67.339844 42.726562 L 67.339844 42.222656 Z M 68.210938 42.222656 " fill-opacity="1" fill-rule="nonzero"/><path fill="#000000" d="M 78.113281 42.222656 C 78.464844 42.222656 78.757812 41.933594 78.757812 41.582031 C 78.757812 41.230469 78.464844 40.941406 78.113281 40.941406 L 76.597656 40.941406 C 76.246094 40.941406 75.953125 41.230469 75.953125 41.582031 L 75.953125 45.152344 C 75.953125 45.503906 76.246094 45.792969 76.597656 45.792969 L 78.113281 45.792969 C 78.464844 45.792969 78.757812 45.503906 78.757812 45.152344 C 78.757812 44.804688 78.464844 44.511719 78.113281 44.511719 L 77.242188 44.511719 L 77.242188 44.007812 L 78 44.007812 C 78.351562 44.007812 78.644531 43.71875 78.644531 43.367188 C 78.644531 43.015625 78.351562 42.726562 78 42.726562 L 77.242188 42.726562 L 77.242188 42.222656 Z M 78.113281 42.222656 " fill-opacity="1" fill-rule="nonzero"/><path fill="#000000" d="M 74.097656 42.710938 L 73.015625 42.710938 C 72.660156 42.710938 72.371094 43 72.371094 43.351562 C 72.371094 43.699219 72.660156 43.992188 73.015625 43.992188 L 73.324219 43.992188 C 73.203125 44.265625 72.972656 44.511719 72.53125 44.511719 C 71.886719 44.511719 71.363281 43.992188 71.363281 43.351562 C 71.363281 42.710938 71.886719 42.1875 72.53125 42.1875 C 72.765625 42.1875 72.988281 42.257812 73.1875 42.386719 C 73.480469 42.582031 73.882812 42.503906 74.082031 42.214844 C 74.277344 41.921875 74.199219 41.523438 73.910156 41.324219 C 73.503906 41.050781 73.023438 40.90625 72.53125 40.90625 C 71.175781 40.90625 70.074219 42 70.074219 43.351562 C 70.074219 44.699219 71.175781 45.792969 72.53125 45.792969 C 73.832031 45.792969 74.742188 44.792969 74.742188 43.351562 C 74.742188 42.992188 74.449219 42.710938 74.097656 42.710938 Z M 74.097656 42.710938 " fill-opacity="1" fill-rule="nonzero"/><path fill="#000000" d="M 50.757812 44.144531 C 50.484375 43.914062 50.078125 43.957031 49.847656 44.222656 C 49.820312 44.257812 49.796875 44.28125 49.769531 44.308594 C 49.625 44.4375 49.433594 44.503906 49.203125 44.503906 C 48.558594 44.503906 48.035156 43.984375 48.035156 43.34375 C 48.035156 42.699219 48.558594 42.179688 49.203125 42.179688 C 49.433594 42.179688 49.660156 42.25 49.855469 42.375 C 50.148438 42.574219 50.554688 42.496094 50.75 42.207031 C 50.949219 41.914062 50.871094 41.511719 50.578125 41.316406 C 50.175781 41.042969 49.691406 40.898438 49.203125 40.898438 C 47.84375 40.898438 46.746094 41.992188 46.746094 43.34375 C 46.746094 44.691406 47.84375 45.785156 49.203125 45.785156 C 49.753906 45.785156 50.242188 45.605469 50.621094 45.265625 C 50.699219 45.195312 50.769531 45.128906 50.835938 45.042969 C 51.058594 44.777344 51.027344 44.375 50.757812 44.144531 Z M 50.757812 44.144531 " fill-opacity="1" fill-rule="nonzero"/><path fill="#000000" d="M 54.402344 40.90625 C 53.046875 40.90625 51.945312 42 51.945312 43.351562 C 51.945312 44.699219 53.046875 45.792969 54.402344 45.792969 C 55.761719 45.792969 56.863281 44.699219 56.863281 43.351562 C 56.863281 42 55.761719 40.90625 54.402344 40.90625 Z M 54.402344 44.503906 C 53.757812 44.503906 53.234375 43.984375 53.234375 43.34375 C 53.234375 42.699219 53.757812 42.179688 54.402344 42.179688 C 55.046875 42.179688 55.574219 42.699219 55.574219 43.34375 C 55.574219 43.984375 55.046875 44.503906 54.402344 44.503906 Z M 54.402344 44.503906 " fill-opacity="1" fill-rule="nonzero"/><g clip-path="url(#ae2601bdfc)"><path fill="#000000" d="M 84.058594 47.769531 L 84.679688 46.128906 C 84.816406 45.75 84.765625 45.332031 84.542969 45 C 84.308594 44.667969 83.929688 44.46875 83.527344 44.46875 L 81.4375 44.46875 L 81.4375 40.078125 C 81.4375 39.4375 80.914062 38.917969 80.269531 38.917969 L 78.464844 38.917969 L 78.464844 26.980469 C 78.464844 26.628906 78.171875 26.339844 77.820312 26.339844 C 77.46875 26.339844 77.175781 26.628906 77.175781 26.980469 L 77.175781 38.917969 L 75.660156 38.917969 L 75.660156 22.851562 C 75.660156 22.433594 75.394531 22.050781 74.992188 21.914062 C 72.507812 21.03125 68.699219 20.375 65.941406 19.980469 C 63.832031 19.675781 61.695312 19.675781 59.578125 19.980469 C 56.820312 20.382812 53.003906 21.03125 50.527344 21.914062 C 50.121094 22.058594 49.855469 22.433594 49.855469 22.851562 L 49.855469 38.917969 L 48.335938 38.917969 L 48.335938 20.570312 C 48.335938 20.484375 48.386719 20.410156 48.472656 20.375 C 51.429688 19.375 55.855469 18.625 59.054688 18.164062 C 61.511719 17.8125 63.996094 17.8125 66.457031 18.164062 C 69.652344 18.625 74.082031 19.375 77.039062 20.375 C 77.125 20.402344 77.175781 20.476562 77.175781 20.570312 L 77.175781 23.980469 C 77.175781 24.332031 77.46875 24.621094 77.820312 24.621094 C 78.171875 24.621094 78.464844 24.332031 78.464844 23.980469 L 78.464844 20.570312 C 78.464844 19.929688 78.058594 19.367188 77.449219 19.160156 C 74.398438 18.136719 69.894531 17.359375 66.644531 16.898438 C 64.066406 16.53125 61.453125 16.53125 58.875 16.898438 C 55.617188 17.367188 51.101562 18.136719 48.058594 19.171875 C 47.457031 19.375 47.046875 19.9375 47.046875 20.582031 L 47.046875 38.925781 L 45.242188 38.925781 C 44.59375 38.925781 44.070312 39.445312 44.070312 40.085938 L 44.070312 44.476562 L 41.972656 44.476562 C 41.570312 44.476562 41.191406 44.675781 40.960938 45.007812 C 40.726562 45.339844 40.675781 45.761719 40.820312 46.136719 L 41.441406 47.777344 L 40.820312 49.417969 C 40.683594 49.792969 40.734375 50.210938 40.960938 50.542969 C 41.191406 50.878906 41.570312 51.074219 41.972656 51.074219 L 46.015625 51.074219 C 46.691406 51.074219 47.242188 50.527344 47.242188 49.851562 L 47.242188 47.792969 L 47.800781 47.792969 C 48.617188 49.980469 50.0625 51.945312 52.03125 53.46875 C 55.015625 55.773438 58.5625 57.464844 62.578125 58.492188 C 62.628906 58.507812 62.683594 58.507812 62.742188 58.507812 C 62.800781 58.507812 62.855469 58.5 62.90625 58.492188 C 66.917969 57.464844 70.46875 55.78125 73.453125 53.46875 C 75.421875 51.945312 76.867188 49.980469 77.683594 47.792969 L 78.242188 47.792969 L 78.242188 49.851562 C 78.242188 50.527344 78.792969 51.074219 79.46875 51.074219 L 83.511719 51.074219 C 83.914062 51.074219 84.292969 50.878906 84.523438 50.542969 C 84.757812 50.210938 84.808594 49.792969 84.664062 49.417969 Z M 51.136719 23.050781 C 53.527344 22.238281 57.121094 21.621094 59.757812 21.246094 C 61.746094 20.964844 63.765625 20.964844 65.75 21.246094 C 68.382812 21.621094 71.984375 22.246094 74.371094 23.050781 L 74.371094 38.917969 L 51.136719 38.917969 Z M 45.960938 49.785156 L 42.058594 49.785156 L 42.652344 48.203125 C 42.757812 47.929688 42.757812 47.621094 42.652344 47.339844 L 42.058594 45.761719 L 44.0625 45.761719 L 44.0625 46.613281 C 44.0625 47.253906 44.585938 47.777344 45.230469 47.777344 L 45.953125 47.777344 L 45.953125 49.785156 Z M 72.660156 52.441406 C 69.859375 54.613281 66.523438 56.210938 62.75 57.191406 C 58.976562 56.210938 55.640625 54.613281 52.839844 52.441406 C 51.199219 51.167969 49.960938 49.5625 49.203125 47.777344 L 51.035156 47.777344 C 51.730469 49.09375 52.726562 50.269531 53.972656 51.238281 C 56.414062 53.125 59.320312 54.507812 62.605469 55.347656 C 62.65625 55.363281 62.707031 55.363281 62.769531 55.363281 C 62.828125 55.363281 62.878906 55.355469 62.929688 55.347656 C 66.214844 54.507812 69.113281 53.125 71.5625 51.238281 C 72.808594 50.269531 73.804688 49.09375 74.5 47.777344 L 76.332031 47.777344 C 75.542969 49.570312 74.304688 51.175781 72.660156 52.441406 Z M 59.125 46.503906 C 58.769531 46.503906 58.476562 46.792969 58.476562 47.144531 C 58.476562 47.496094 58.769531 47.785156 59.125 47.785156 L 72.988281 47.785156 C 72.402344 48.699219 71.65625 49.527344 70.746094 50.238281 C 68.484375 51.988281 65.792969 53.277344 62.75 54.074219 C 59.707031 53.277344 57.015625 51.988281 54.757812 50.238281 C 53.84375 49.535156 53.097656 48.707031 52.511719 47.785156 L 56.125 47.785156 C 56.476562 47.785156 56.769531 47.496094 56.769531 47.144531 C 56.769531 46.792969 56.476562 46.503906 56.125 46.503906 L 45.351562 46.503906 L 45.351562 40.199219 L 80.140625 40.199219 L 80.140625 46.503906 Z M 82.847656 48.195312 L 83.441406 49.777344 L 79.539062 49.777344 L 79.539062 47.777344 L 80.261719 47.777344 C 80.90625 47.777344 81.429688 47.253906 81.429688 46.613281 L 81.429688 45.761719 L 83.433594 45.761719 L 82.839844 47.339844 C 82.738281 47.613281 82.738281 47.921875 82.847656 48.195312 Z M 82.847656 48.195312 " fill-opacity="1" fill-rule="nonzero"/></g><path fill="#000000" d="M 72.136719 31.859375 C 72.136719 31.859375 72.136719 28.167969 72.136719 28.167969 C 72.136719 28.167969 72.136719 28.167969 72.136719 28.160156 C 72.136719 28.148438 72.136719 28.140625 72.136719 28.132812 C 72.136719 28.117188 72.136719 28.109375 72.136719 28.089844 C 72.113281 27.792969 71.929688 27.535156 71.648438 27.414062 L 62.800781 23.699219 C 62.433594 23.546875 62.003906 23.546875 61.632812 23.699219 L 52.796875 27.414062 C 52.496094 27.542969 52.296875 27.835938 52.296875 28.160156 C 52.296875 28.484375 52.496094 28.773438 52.796875 28.902344 L 56.054688 30.277344 L 56.054688 33.875 C 56.054688 34.457031 56.433594 34.96875 56.992188 35.140625 C 57.5 35.292969 58.125 35.488281 58.230469 35.515625 C 59.425781 35.867188 60.894531 36.078125 62.40625 36.078125 C 64.210938 36.078125 66.085938 35.773438 67.640625 35.003906 C 68.089844 34.78125 68.371094 34.320312 68.371094 33.824219 L 68.371094 30.277344 L 70.839844 29.242188 L 70.839844 31.867188 C 70.222656 32.125 69.78125 32.722656 69.78125 33.429688 L 69.78125 34.679688 C 69.78125 35.609375 70.546875 36.371094 71.484375 36.371094 C 72.421875 36.371094 73.1875 35.609375 73.1875 34.679688 L 73.1875 33.429688 C 73.195312 32.714844 72.757812 32.113281 72.136719 31.859375 Z M 67.089844 33.816406 C 67.089844 33.832031 67.082031 33.847656 67.074219 33.847656 C 64.539062 35.097656 60.902344 34.953125 58.597656 34.277344 C 58.53125 34.257812 58.082031 34.121094 57.386719 33.910156 C 57.371094 33.902344 57.359375 33.882812 57.359375 33.867188 L 57.359375 30.808594 L 61.652344 32.609375 C 61.839844 32.6875 62.039062 32.730469 62.234375 32.730469 C 62.433594 32.730469 62.628906 32.6875 62.820312 32.609375 L 67.109375 30.808594 Z M 62.769531 28.808594 L 68.554688 28.808594 L 62.304688 31.429688 C 62.253906 31.457031 62.191406 31.457031 62.140625 31.429688 L 54.34375 28.160156 L 62.140625 24.878906 C 62.191406 24.851562 62.253906 24.851562 62.304688 24.878906 L 68.597656 27.527344 L 62.757812 27.527344 C 62.40625 27.527344 62.113281 27.816406 62.113281 28.167969 C 62.125 28.527344 62.40625 28.808594 62.769531 28.808594 Z M 71.90625 34.667969 C 71.90625 34.890625 71.726562 35.078125 71.492188 35.078125 C 71.261719 35.078125 71.082031 34.898438 71.082031 34.667969 L 71.082031 33.421875 C 71.082031 33.199219 71.261719 33.011719 71.492188 33.011719 C 71.714844 33.011719 71.90625 33.191406 71.90625 33.421875 Z M 71.90625 34.667969 " fill-opacity="1" fill-rule="nonzero"/></svg>