<svg xmlns="http://www.w3.org/2000/svg" xmlns:xlink="http://www.w3.org/1999/xlink" width="350" zoomAndPan="magnify" viewBox="0 0 262.5 93.749996" height="125" preserveAspectRatio="xMidYMid meet" version="1.0"><defs><g/><clipPath id="df0aca66a6"><path d="M 0.101562 0 L 261.902344 0 L 261.902344 93.5 L 0.101562 93.5 Z M 0.101562 0 " clip-rule="nonzero"/></clipPath><clipPath id="0695d52ce8"><path d="M 25 32 L 82.289062 32 L 82.289062 84.152344 L 25 84.152344 Z M 25 32 " clip-rule="nonzero"/></clipPath><clipPath id="b2f8485d78"><path d="M 11.230469 9.351562 L 53 9.351562 L 53 39 L 11.230469 39 Z M 11.230469 9.351562 " clip-rule="nonzero"/></clipPath></defs><g clip-path="url(#df0aca66a6)"><path fill="#ffffff" d="M 0.101562 0 L 261.902344 0 L 261.902344 93.5 L 0.101562 93.5 Z M 0.101562 0 " fill-opacity="1" fill-rule="nonzero"/><path fill="#ffffff" d="M 0.101562 0 L 261.902344 0 L 261.902344 93.5 L 0.101562 93.5 Z M 0.101562 0 " fill-opacity="1" fill-rule="nonzero"/></g><g clip-path="url(#0695d52ce8)"><path fill="#054d3b" d="M 54.421875 80.175781 C 59.316406 80.0625 64.046875 78.707031 68 76.363281 C 71.890625 74.042969 75.007812 70.734375 76.761719 66.691406 C 78.464844 62.75 78.871094 58.058594 77.421875 52.835938 C 75.757812 46.867188 71.648438 42.238281 66.769531 39.730469 C 64.8125 38.730469 62.75 38.054688 60.679688 37.789062 C 58.632812 37.523438 56.585938 37.625 54.640625 38.171875 C 50.964844 39.183594 47.621094 41.746094 45.308594 46.207031 C 43.984375 48.765625 43.386719 51.570312 43.488281 54.34375 C 43.515625 55.078125 43.589844 55.800781 43.71875 56.523438 C 43.78125 56.929688 43.871094 57.347656 43.988281 57.742188 L 43.988281 57.753906 C 44.824219 60.910156 46.898438 63.625 49.769531 65.269531 C 47.203125 62.6875 45.574219 59.328125 45.144531 55.75 C 46.046875 54.40625 47.074219 53.332031 48.183594 52.46875 C 50.800781 50.402344 53.75 49.605469 56.28125 49.25 C 64.949219 48.042969 68.179688 54.089844 73.101562 59.792969 C 73.519531 60.289062 73.519531 61.011719 73.085938 61.492188 C 73.0625 61.519531 73.023438 61.554688 73 61.59375 C 72.746094 61.886719 72.402344 62.027344 72.019531 62.027344 C 71.625 62.027344 71.296875 61.859375 71.042969 61.570312 L 69.296875 59.503906 C 69.261719 60.300781 69.109375 61.113281 68.867188 61.898438 C 67.75 65.398438 64.609375 68.628906 59.066406 70.023438 C 55.988281 70.808594 52.796875 70.695312 49.898438 69.730469 C 47.0625 68.792969 44.519531 67.046875 42.640625 64.546875 L 42.625 64.523438 L 42.550781 64.394531 C 40.667969 61.351562 39.652344 57.941406 39.523438 54.484375 C 39.386719 51.046875 40.136719 47.5625 41.773438 44.394531 C 44.648438 38.855469 48.894531 35.644531 53.585938 34.339844 C 56.050781 33.667969 58.632812 33.515625 61.1875 33.859375 C 63.730469 34.1875 66.234375 35 68.585938 36.203125 C 74.382812 39.195312 79.277344 44.683594 81.25 51.769531 C 82.964844 57.941406 82.46875 63.519531 80.421875 68.261719 C 78.324219 73.089844 74.625 77.019531 70.035156 79.757812 C 65.511719 82.457031 60.09375 84.003906 54.5 84.128906 C 39.003906 84.484375 23.886719 74.34375 25.804688 57.347656 C 26.683594 49.601562 30.167969 41.273438 32.085938 32.90625 C 33.394531 41.121094 29.355469 49.601562 29.289062 58.105469 C 29.175781 72.175781 41.136719 80.480469 54.425781 80.175781 Z M 54.421875 80.175781 " fill-opacity="1" fill-rule="nonzero"/></g><g clip-path="url(#b2f8485d78)"><path fill="#799e29" d="M 49.351562 21.359375 C 41.671875 23.023438 35.609375 28.878906 33.6875 36.484375 C 32.824219 31.464844 34.566406 26.34375 38.300781 22.882812 C 42.054688 19.421875 47.304688 18.089844 52.261719 19.335938 C 52.554688 24.1875 50.8125 28.953125 47.429688 32.464844 C 44.050781 35.976562 39.359375 37.914062 34.476562 37.828125 C 36.636719 30.347656 42.117188 24.277344 49.351562 21.359375 Z M 15.292969 12.816406 C 24.242188 17.367188 29.835938 26.585938 29.707031 36.609375 C 32.429688 30.679688 31.960938 23.78125 28.449219 18.292969 C 24.953125 12.792969 18.902344 9.433594 12.367188 9.359375 C 10.398438 15.265625 11.007812 21.730469 14.03125 27.167969 C 17.070312 32.605469 22.234375 36.546875 28.308594 38.003906 C 28.082031 28.066406 23.289062 18.777344 15.292969 12.816406 Z M 15.292969 12.816406 " fill-opacity="1" fill-rule="evenodd"/></g><g fill="#054d3b" fill-opacity="1"><g transform="translate(83.507133, 47.27794)"><g><path d="M 1.21875 -4.09375 L 1.21875 -4.578125 C 1.21875 -4.929688 1.394531 -5.109375 1.75 -5.109375 L 3.859375 -5.109375 C 4.210938 -5.109375 4.390625 -4.929688 4.390625 -4.578125 L 4.390625 -4.390625 C 4.390625 -3.753906 4.515625 -3.316406 4.765625 -3.078125 C 5.015625 -2.847656 5.46875 -2.734375 6.125 -2.734375 L 7.296875 -2.734375 C 7.953125 -2.734375 8.40625 -2.859375 8.65625 -3.109375 C 8.914062 -3.359375 9.046875 -3.828125 9.046875 -4.515625 L 9.046875 -4.8125 C 9.046875 -5.289062 8.847656 -5.660156 8.453125 -5.921875 C 8.066406 -6.179688 7.582031 -6.332031 7 -6.375 C 6.414062 -6.425781 5.785156 -6.519531 5.109375 -6.65625 C 4.441406 -6.800781 3.816406 -6.984375 3.234375 -7.203125 C 2.660156 -7.429688 2.175781 -7.875 1.78125 -8.53125 C 1.394531 -9.1875 1.203125 -10.03125 1.203125 -11.0625 L 1.203125 -11.9375 C 1.203125 -13.226562 1.566406 -14.234375 2.296875 -14.953125 C 3.023438 -15.671875 4.035156 -16.03125 5.328125 -16.03125 L 7.828125 -16.03125 C 9.140625 -16.03125 10.160156 -15.671875 10.890625 -14.953125 C 11.617188 -14.234375 11.984375 -13.226562 11.984375 -11.9375 L 11.984375 -11.46875 C 11.984375 -11.113281 11.8125 -10.9375 11.46875 -10.9375 L 9.34375 -10.9375 C 9 -10.9375 8.828125 -11.113281 8.828125 -11.46875 L 8.828125 -11.609375 C 8.828125 -12.253906 8.703125 -12.691406 8.453125 -12.921875 C 8.203125 -13.160156 7.742188 -13.28125 7.078125 -13.28125 L 6.109375 -13.28125 C 5.421875 -13.28125 4.957031 -13.148438 4.71875 -12.890625 C 4.476562 -12.640625 4.359375 -12.140625 4.359375 -11.390625 L 4.359375 -10.921875 C 4.359375 -10.140625 5.039062 -9.6875 6.40625 -9.5625 C 7.8125 -9.445312 9.066406 -9.164062 10.171875 -8.71875 C 10.753906 -8.46875 11.238281 -8.023438 11.625 -7.390625 C 12.019531 -6.753906 12.21875 -5.9375 12.21875 -4.9375 L 12.21875 -4.09375 C 12.21875 -2.789062 11.847656 -1.78125 11.109375 -1.0625 C 10.378906 -0.351562 9.367188 0 8.078125 0 L 5.359375 0 C 4.066406 0 3.050781 -0.351562 2.3125 -1.0625 C 1.582031 -1.78125 1.21875 -2.789062 1.21875 -4.09375 Z M 1.21875 -4.09375 "/></g></g></g><g fill="#054d3b" fill-opacity="1"><g transform="translate(98.513363, 47.27794)"><g><path d="M 10.296875 0 L 2.140625 0 C 1.796875 0 1.625 -0.171875 1.625 -0.515625 L 1.625 -15.5 C 1.625 -15.851562 1.796875 -16.03125 2.140625 -16.03125 L 10.296875 -16.03125 C 10.628906 -16.03125 10.796875 -15.851562 10.796875 -15.5 L 10.796875 -13.8125 C 10.796875 -13.457031 10.628906 -13.28125 10.296875 -13.28125 L 5.078125 -13.28125 C 4.878906 -13.28125 4.78125 -13.191406 4.78125 -13.015625 L 4.78125 -9.765625 C 4.78125 -9.585938 4.878906 -9.5 5.078125 -9.5 L 9.34375 -9.5 C 9.695312 -9.5 9.875 -9.320312 9.875 -8.96875 L 9.875 -7.28125 C 9.875 -6.925781 9.695312 -6.75 9.34375 -6.75 L 5.078125 -6.75 C 4.878906 -6.75 4.78125 -6.660156 4.78125 -6.484375 L 4.78125 -3.015625 C 4.78125 -2.828125 4.878906 -2.734375 5.078125 -2.734375 L 10.296875 -2.734375 C 10.628906 -2.734375 10.796875 -2.5625 10.796875 -2.21875 L 10.796875 -0.515625 C 10.796875 -0.171875 10.628906 0 10.296875 0 Z M 10.296875 0 "/></g></g></g><g fill="#054d3b" fill-opacity="1"><g transform="translate(112.023967, 47.27794)"><g><path d="M 10.296875 0 L 2.140625 0 C 1.796875 0 1.625 -0.171875 1.625 -0.515625 L 1.625 -15.5 C 1.625 -15.851562 1.796875 -16.03125 2.140625 -16.03125 L 10.296875 -16.03125 C 10.628906 -16.03125 10.796875 -15.851562 10.796875 -15.5 L 10.796875 -13.8125 C 10.796875 -13.457031 10.628906 -13.28125 10.296875 -13.28125 L 5.078125 -13.28125 C 4.878906 -13.28125 4.78125 -13.191406 4.78125 -13.015625 L 4.78125 -9.765625 C 4.78125 -9.585938 4.878906 -9.5 5.078125 -9.5 L 9.34375 -9.5 C 9.695312 -9.5 9.875 -9.320312 9.875 -8.96875 L 9.875 -7.28125 C 9.875 -6.925781 9.695312 -6.75 9.34375 -6.75 L 5.078125 -6.75 C 4.878906 -6.75 4.78125 -6.660156 4.78125 -6.484375 L 4.78125 -3.015625 C 4.78125 -2.828125 4.878906 -2.734375 5.078125 -2.734375 L 10.296875 -2.734375 C 10.628906 -2.734375 10.796875 -2.5625 10.796875 -2.21875 L 10.796875 -0.515625 C 10.796875 -0.171875 10.628906 0 10.296875 0 Z M 10.296875 0 "/></g></g></g><g fill="#054d3b" fill-opacity="1"><g transform="translate(125.534569, 47.27794)"><g><path d="M 5.0625 -2.734375 L 7.78125 -2.734375 C 8.3125 -2.734375 8.6875 -2.847656 8.90625 -3.078125 C 9.132812 -3.304688 9.25 -3.6875 9.25 -4.21875 L 9.25 -11.8125 C 9.25 -12.34375 9.132812 -12.71875 8.90625 -12.9375 C 8.6875 -13.164062 8.3125 -13.28125 7.78125 -13.28125 L 5.0625 -13.28125 C 4.875 -13.28125 4.78125 -13.191406 4.78125 -13.015625 L 4.78125 -3.015625 C 4.78125 -2.828125 4.875 -2.734375 5.0625 -2.734375 Z M 1.625 -0.515625 L 1.625 -15.5 C 1.625 -15.851562 1.796875 -16.03125 2.140625 -16.03125 L 8.296875 -16.03125 C 9.597656 -16.03125 10.609375 -15.675781 11.328125 -14.96875 C 12.046875 -14.257812 12.40625 -13.257812 12.40625 -11.96875 L 12.40625 -4.0625 C 12.40625 -2.769531 12.046875 -1.769531 11.328125 -1.0625 C 10.609375 -0.351562 9.597656 0 8.296875 0 L 2.140625 0 C 1.796875 0 1.625 -0.171875 1.625 -0.515625 Z M 1.625 -0.515625 "/></g></g></g><g fill="#054d3b" fill-opacity="1"><g transform="translate(140.889785, 47.27794)"><g/></g></g><g fill="#054d3b" fill-opacity="1"><g transform="translate(147.944275, 47.27794)"><g><path d="M 6.578125 0 L 4.484375 0 C 4.117188 0 3.9375 -0.171875 3.9375 -0.515625 L 3.9375 -13.015625 C 3.9375 -13.191406 3.84375 -13.28125 3.65625 -13.28125 L 0.828125 -13.28125 C 0.472656 -13.28125 0.296875 -13.457031 0.296875 -13.8125 L 0.296875 -15.5 C 0.296875 -15.851562 0.472656 -16.03125 0.828125 -16.03125 L 10.25 -16.03125 C 10.59375 -16.03125 10.765625 -15.851562 10.765625 -15.5 L 10.765625 -13.8125 C 10.765625 -13.457031 10.59375 -13.28125 10.25 -13.28125 L 7.40625 -13.28125 C 7.207031 -13.28125 7.109375 -13.191406 7.109375 -13.015625 L 7.109375 -0.515625 C 7.109375 -0.171875 6.929688 0 6.578125 0 Z M 6.578125 0 "/></g></g></g><g fill="#054d3b" fill-opacity="1"><g transform="translate(160.557503, 47.27794)"><g><path d="M 5.984375 -2.734375 L 7.75 -2.734375 C 8.28125 -2.734375 8.65625 -2.847656 8.875 -3.078125 C 9.101562 -3.304688 9.21875 -3.6875 9.21875 -4.21875 L 9.21875 -11.8125 C 9.21875 -12.34375 9.101562 -12.71875 8.875 -12.9375 C 8.65625 -13.164062 8.28125 -13.28125 7.75 -13.28125 L 5.984375 -13.28125 C 5.453125 -13.28125 5.078125 -13.164062 4.859375 -12.9375 C 4.640625 -12.71875 4.53125 -12.34375 4.53125 -11.8125 L 4.53125 -4.21875 C 4.53125 -3.6875 4.640625 -3.304688 4.859375 -3.078125 C 5.078125 -2.847656 5.453125 -2.734375 5.984375 -2.734375 Z M 8.28125 0 L 5.484375 0 C 4.171875 0 3.15625 -0.347656 2.4375 -1.046875 C 1.726562 -1.742188 1.375 -2.75 1.375 -4.0625 L 1.375 -11.96875 C 1.375 -13.28125 1.726562 -14.285156 2.4375 -14.984375 C 3.15625 -15.679688 4.171875 -16.03125 5.484375 -16.03125 L 8.28125 -16.03125 C 9.59375 -16.03125 10.601562 -15.679688 11.3125 -14.984375 C 12.03125 -14.285156 12.390625 -13.28125 12.390625 -11.96875 L 12.390625 -4.0625 C 12.390625 -2.75 12.03125 -1.742188 11.3125 -1.046875 C 10.601562 -0.347656 9.59375 0 8.28125 0 Z M 8.28125 0 "/></g></g></g><g fill="#054d3b" fill-opacity="1"><g transform="translate(175.887782, 47.27794)"><g/></g></g><g fill="#054d3b" fill-opacity="1"><g transform="translate(182.942268, 47.27794)"><g><path d="M 6.578125 0 L 4.484375 0 C 4.117188 0 3.9375 -0.171875 3.9375 -0.515625 L 3.9375 -13.015625 C 3.9375 -13.191406 3.84375 -13.28125 3.65625 -13.28125 L 0.828125 -13.28125 C 0.472656 -13.28125 0.296875 -13.457031 0.296875 -13.8125 L 0.296875 -15.5 C 0.296875 -15.851562 0.472656 -16.03125 0.828125 -16.03125 L 10.25 -16.03125 C 10.59375 -16.03125 10.765625 -15.851562 10.765625 -15.5 L 10.765625 -13.8125 C 10.765625 -13.457031 10.59375 -13.28125 10.25 -13.28125 L 7.40625 -13.28125 C 7.207031 -13.28125 7.109375 -13.191406 7.109375 -13.015625 L 7.109375 -0.515625 C 7.109375 -0.171875 6.929688 0 6.578125 0 Z M 6.578125 0 "/></g></g></g><g fill="#054d3b" fill-opacity="1"><g transform="translate(195.555497, 47.27794)"><g><path d="M 3.296875 0 L 0.890625 0 C 0.597656 0 0.5 -0.171875 0.59375 -0.515625 L 4.53125 -15.5 C 4.644531 -15.851562 4.894531 -16.03125 5.28125 -16.03125 L 8.59375 -16.03125 C 9.007812 -16.03125 9.257812 -15.851562 9.34375 -15.5 L 13.28125 -0.515625 C 13.382812 -0.171875 13.285156 0 12.984375 0 L 10.59375 0 C 10.40625 0 10.28125 -0.0351562 10.21875 -0.109375 C 10.15625 -0.179688 10.101562 -0.316406 10.0625 -0.515625 L 9.375 -3.265625 L 4.515625 -3.265625 L 3.8125 -0.515625 C 3.78125 -0.316406 3.722656 -0.179688 3.640625 -0.109375 C 3.566406 -0.0351562 3.453125 0 3.296875 0 Z M 6.90625 -13.015625 L 5.109375 -5.8125 L 8.796875 -5.8125 L 7 -13.015625 Z M 6.90625 -13.015625 "/></g></g></g><g fill="#054d3b" fill-opacity="1"><g transform="translate(211.010417, 47.27794)"><g><path d="M 5.0625 -2.640625 L 7.84375 -2.640625 C 8.394531 -2.640625 8.789062 -2.75 9.03125 -2.96875 C 9.269531 -3.195312 9.390625 -3.570312 9.390625 -4.09375 L 9.390625 -5.53125 C 9.390625 -6.050781 9.265625 -6.414062 9.015625 -6.625 C 8.765625 -6.84375 8.359375 -6.953125 7.796875 -6.953125 L 5.0625 -6.953125 C 4.875 -6.953125 4.78125 -6.859375 4.78125 -6.671875 L 4.78125 -2.921875 C 4.78125 -2.734375 4.875 -2.640625 5.0625 -2.640625 Z M 5.0625 -9.515625 L 7.59375 -9.515625 C 8.132812 -9.515625 8.523438 -9.625 8.765625 -9.84375 C 9.015625 -10.070312 9.140625 -10.445312 9.140625 -10.96875 L 9.140625 -11.9375 C 9.140625 -12.445312 9.019531 -12.816406 8.78125 -13.046875 C 8.539062 -13.273438 8.15625 -13.390625 7.625 -13.390625 L 5.0625 -13.390625 C 4.875 -13.390625 4.78125 -13.296875 4.78125 -13.109375 L 4.78125 -9.796875 C 4.78125 -9.609375 4.875 -9.515625 5.0625 -9.515625 Z M 1.625 -0.515625 L 1.625 -15.5 C 1.625 -15.851562 1.796875 -16.03125 2.140625 -16.03125 L 8.125 -16.03125 C 9.4375 -16.03125 10.445312 -15.679688 11.15625 -14.984375 C 11.875 -14.285156 12.234375 -13.285156 12.234375 -11.984375 L 12.234375 -10.96875 C 12.234375 -9.550781 11.578125 -8.632812 10.265625 -8.21875 C 10.929688 -8.125 11.460938 -7.851562 11.859375 -7.40625 C 12.265625 -6.96875 12.46875 -6.34375 12.46875 -5.53125 L 12.46875 -4.03125 C 12.46875 -2.738281 12.109375 -1.742188 11.390625 -1.046875 C 10.671875 -0.347656 9.664062 0 8.375 0 L 2.140625 0 C 1.796875 0 1.625 -0.171875 1.625 -0.515625 Z M 1.625 -0.515625 "/></g></g></g><g fill="#054d3b" fill-opacity="1"><g transform="translate(226.41548, 47.27794)"><g><path d="M 10.34375 0 L 2.140625 0 C 1.796875 0 1.625 -0.171875 1.625 -0.515625 L 1.625 -15.5 C 1.625 -15.851562 1.796875 -16.03125 2.140625 -16.03125 L 4.265625 -16.03125 C 4.609375 -16.03125 4.78125 -15.851562 4.78125 -15.5 L 4.78125 -3.046875 C 4.78125 -2.859375 4.878906 -2.765625 5.078125 -2.765625 L 10.34375 -2.765625 C 10.675781 -2.765625 10.84375 -2.582031 10.84375 -2.21875 L 10.84375 -0.515625 C 10.84375 -0.171875 10.675781 0 10.34375 0 Z M 10.34375 0 "/></g></g></g><g fill="#054d3b" fill-opacity="1"><g transform="translate(239.178267, 47.27794)"><g><path d="M 10.296875 0 L 2.140625 0 C 1.796875 0 1.625 -0.171875 1.625 -0.515625 L 1.625 -15.5 C 1.625 -15.851562 1.796875 -16.03125 2.140625 -16.03125 L 10.296875 -16.03125 C 10.628906 -16.03125 10.796875 -15.851562 10.796875 -15.5 L 10.796875 -13.8125 C 10.796875 -13.457031 10.628906 -13.28125 10.296875 -13.28125 L 5.078125 -13.28125 C 4.878906 -13.28125 4.78125 -13.191406 4.78125 -13.015625 L 4.78125 -9.765625 C 4.78125 -9.585938 4.878906 -9.5 5.078125 -9.5 L 9.34375 -9.5 C 9.695312 -9.5 9.875 -9.320312 9.875 -8.96875 L 9.875 -7.28125 C 9.875 -6.925781 9.695312 -6.75 9.34375 -6.75 L 5.078125 -6.75 C 4.878906 -6.75 4.78125 -6.660156 4.78125 -6.484375 L 4.78125 -3.015625 C 4.78125 -2.828125 4.878906 -2.734375 5.078125 -2.734375 L 10.296875 -2.734375 C 10.628906 -2.734375 10.796875 -2.5625 10.796875 -2.21875 L 10.796875 -0.515625 C 10.796875 -0.171875 10.628906 0 10.296875 0 Z M 10.296875 0 "/></g></g></g><g fill="#799e29" fill-opacity="1"><g transform="translate(104.667591, 72.906618)"><g><path d="M 1.46875 0 C 1.25 0 1.140625 -0.101562 1.140625 -0.3125 L 1.140625 -12.828125 C 1.140625 -13.035156 1.25 -13.140625 1.46875 -13.140625 L 3.46875 -13.140625 C 3.6875 -13.140625 3.796875 -13.035156 3.796875 -12.828125 L 3.796875 -0.3125 C 3.796875 -0.101562 3.6875 0 3.46875 0 Z M 1.46875 0 "/></g></g></g><g fill="#799e29" fill-opacity="1"><g transform="translate(114.132691, 72.906618)"><g><path d="M 1.46875 0 C 1.25 0 1.140625 -0.101562 1.140625 -0.3125 L 1.140625 -12.828125 C 1.140625 -13.035156 1.25 -13.140625 1.46875 -13.140625 L 3.40625 -13.140625 C 3.5625 -13.140625 3.6875 -13.070312 3.78125 -12.9375 L 8.46875 -5.125 C 8.5 -5.070312 8.53125 -5.050781 8.5625 -5.0625 C 8.59375 -5.082031 8.609375 -5.117188 8.609375 -5.171875 L 8.609375 -12.828125 C 8.609375 -13.035156 8.710938 -13.140625 8.921875 -13.140625 L 10.890625 -13.140625 C 11.109375 -13.140625 11.21875 -13.035156 11.21875 -12.828125 L 11.21875 -0.3125 C 11.21875 -0.101562 11.109375 0 10.890625 0 L 8.984375 0 C 8.828125 0 8.703125 -0.0703125 8.609375 -0.21875 L 3.890625 -8.109375 C 3.859375 -8.160156 3.828125 -8.179688 3.796875 -8.171875 C 3.765625 -8.160156 3.75 -8.128906 3.75 -8.078125 L 3.78125 -0.3125 C 3.78125 -0.101562 3.671875 0 3.453125 0 Z M 1.46875 0 "/></g></g></g><g fill="#799e29" fill-opacity="1"><g transform="translate(131.013955, 72.906618)"><g><path d="M 5.59375 0.15625 C 4.613281 0.15625 3.753906 -0.00390625 3.015625 -0.328125 C 2.285156 -0.660156 1.71875 -1.117188 1.3125 -1.703125 C 0.914062 -2.296875 0.71875 -2.988281 0.71875 -3.78125 L 0.71875 -4.09375 C 0.71875 -4.300781 0.820312 -4.40625 1.03125 -4.40625 L 3 -4.40625 C 3.21875 -4.40625 3.328125 -4.328125 3.328125 -4.171875 L 3.328125 -3.90625 C 3.328125 -3.40625 3.550781 -2.984375 4 -2.640625 C 4.457031 -2.296875 5.054688 -2.125 5.796875 -2.125 C 6.460938 -2.125 6.953125 -2.265625 7.265625 -2.546875 C 7.585938 -2.828125 7.75 -3.175781 7.75 -3.59375 C 7.75 -3.882812 7.648438 -4.132812 7.453125 -4.34375 C 7.253906 -4.550781 6.984375 -4.734375 6.640625 -4.890625 C 6.304688 -5.046875 5.765625 -5.265625 5.015625 -5.546875 C 4.160156 -5.828125 3.445312 -6.117188 2.875 -6.421875 C 2.300781 -6.722656 1.8125 -7.132812 1.40625 -7.65625 C 1.007812 -8.175781 0.8125 -8.816406 0.8125 -9.578125 C 0.8125 -10.328125 1.003906 -10.984375 1.390625 -11.546875 C 1.773438 -12.109375 2.316406 -12.539062 3.015625 -12.84375 C 3.710938 -13.144531 4.503906 -13.296875 5.390625 -13.296875 C 6.335938 -13.296875 7.1875 -13.125 7.9375 -12.78125 C 8.695312 -12.445312 9.285156 -11.976562 9.703125 -11.375 C 10.117188 -10.769531 10.328125 -10.066406 10.328125 -9.265625 L 10.328125 -9.078125 C 10.328125 -8.859375 10.222656 -8.75 10.015625 -8.75 L 8.03125 -8.75 C 7.820312 -8.75 7.71875 -8.8125 7.71875 -8.9375 L 7.71875 -9.125 C 7.71875 -9.65625 7.5 -10.101562 7.0625 -10.46875 C 6.632812 -10.84375 6.046875 -11.03125 5.296875 -11.03125 C 4.691406 -11.03125 4.226562 -10.898438 3.90625 -10.640625 C 3.582031 -10.390625 3.421875 -10.046875 3.421875 -9.609375 C 3.421875 -9.296875 3.515625 -9.035156 3.703125 -8.828125 C 3.890625 -8.617188 4.171875 -8.425781 4.546875 -8.25 C 4.929688 -8.070312 5.523438 -7.84375 6.328125 -7.5625 C 7.203125 -7.238281 7.894531 -6.953125 8.40625 -6.703125 C 8.925781 -6.460938 9.390625 -6.09375 9.796875 -5.59375 C 10.203125 -5.09375 10.40625 -4.445312 10.40625 -3.65625 C 10.40625 -2.894531 10.207031 -2.222656 9.8125 -1.640625 C 9.414062 -1.066406 8.859375 -0.625 8.140625 -0.3125 C 7.421875 0 6.570312 0.15625 5.59375 0.15625 Z M 5.59375 0.15625 "/></g></g></g><g fill="#799e29" fill-opacity="1"><g transform="translate(146.656055, 72.906618)"><g><path d="M 10.125 -13.140625 C 10.332031 -13.140625 10.4375 -13.035156 10.4375 -12.828125 L 10.4375 -11.171875 C 10.4375 -10.960938 10.332031 -10.859375 10.125 -10.859375 L 6.875 -10.859375 C 6.800781 -10.859375 6.765625 -10.820312 6.765625 -10.75 L 6.765625 -0.3125 C 6.765625 -0.101562 6.65625 0 6.4375 0 L 4.4375 0 C 4.21875 0 4.109375 -0.101562 4.109375 -0.3125 L 4.109375 -10.75 C 4.109375 -10.820312 4.070312 -10.859375 4 -10.859375 L 0.84375 -10.859375 C 0.632812 -10.859375 0.53125 -10.960938 0.53125 -11.171875 L 0.53125 -12.828125 C 0.53125 -13.035156 0.632812 -13.140625 0.84375 -13.140625 Z M 10.125 -13.140625 "/></g></g></g><g fill="#799e29" fill-opacity="1"><g transform="translate(162.166729, 72.906618)"><g><path d="M 1.46875 0 C 1.25 0 1.140625 -0.101562 1.140625 -0.3125 L 1.140625 -12.828125 C 1.140625 -13.035156 1.25 -13.140625 1.46875 -13.140625 L 3.46875 -13.140625 C 3.6875 -13.140625 3.796875 -13.035156 3.796875 -12.828125 L 3.796875 -0.3125 C 3.796875 -0.101562 3.6875 0 3.46875 0 Z M 1.46875 0 "/></g></g></g><g fill="#799e29" fill-opacity="1"><g transform="translate(171.631825, 72.906618)"><g><path d="M 10.125 -13.140625 C 10.332031 -13.140625 10.4375 -13.035156 10.4375 -12.828125 L 10.4375 -11.171875 C 10.4375 -10.960938 10.332031 -10.859375 10.125 -10.859375 L 6.875 -10.859375 C 6.800781 -10.859375 6.765625 -10.820312 6.765625 -10.75 L 6.765625 -0.3125 C 6.765625 -0.101562 6.65625 0 6.4375 0 L 4.4375 0 C 4.21875 0 4.109375 -0.101562 4.109375 -0.3125 L 4.109375 -10.75 C 4.109375 -10.820312 4.070312 -10.859375 4 -10.859375 L 0.84375 -10.859375 C 0.632812 -10.859375 0.53125 -10.960938 0.53125 -11.171875 L 0.53125 -12.828125 C 0.53125 -13.035156 0.632812 -13.140625 0.84375 -13.140625 Z M 10.125 -13.140625 "/></g></g></g><g fill="#799e29" fill-opacity="1"><g transform="translate(187.142495, 72.906618)"><g><path d="M 5.921875 0.15625 C 4.953125 0.15625 4.097656 -0.03125 3.359375 -0.40625 C 2.628906 -0.789062 2.0625 -1.320312 1.65625 -2 C 1.25 -2.6875 1.046875 -3.472656 1.046875 -4.359375 L 1.046875 -12.828125 C 1.046875 -13.035156 1.15625 -13.140625 1.375 -13.140625 L 3.375 -13.140625 C 3.59375 -13.140625 3.703125 -13.035156 3.703125 -12.828125 L 3.703125 -4.34375 C 3.703125 -3.675781 3.90625 -3.140625 4.3125 -2.734375 C 4.71875 -2.328125 5.253906 -2.125 5.921875 -2.125 C 6.578125 -2.125 7.109375 -2.328125 7.515625 -2.734375 C 7.921875 -3.140625 8.125 -3.675781 8.125 -4.34375 L 8.125 -12.828125 C 8.125 -13.035156 8.234375 -13.140625 8.453125 -13.140625 L 10.46875 -13.140625 C 10.675781 -13.140625 10.78125 -13.035156 10.78125 -12.828125 L 10.78125 -4.359375 C 10.78125 -3.472656 10.578125 -2.6875 10.171875 -2 C 9.765625 -1.320312 9.191406 -0.789062 8.453125 -0.40625 C 7.722656 -0.03125 6.878906 0.15625 5.921875 0.15625 Z M 5.921875 0.15625 "/></g></g></g><g fill="#799e29" fill-opacity="1"><g transform="translate(203.47927, 72.906618)"><g><path d="M 10.125 -13.140625 C 10.332031 -13.140625 10.4375 -13.035156 10.4375 -12.828125 L 10.4375 -11.171875 C 10.4375 -10.960938 10.332031 -10.859375 10.125 -10.859375 L 6.875 -10.859375 C 6.800781 -10.859375 6.765625 -10.820312 6.765625 -10.75 L 6.765625 -0.3125 C 6.765625 -0.101562 6.65625 0 6.4375 0 L 4.4375 0 C 4.21875 0 4.109375 -0.101562 4.109375 -0.3125 L 4.109375 -10.75 C 4.109375 -10.820312 4.070312 -10.859375 4 -10.859375 L 0.84375 -10.859375 C 0.632812 -10.859375 0.53125 -10.960938 0.53125 -11.171875 L 0.53125 -12.828125 C 0.53125 -13.035156 0.632812 -13.140625 0.84375 -13.140625 Z M 10.125 -13.140625 "/></g></g></g><g fill="#799e29" fill-opacity="1"><g transform="translate(218.989941, 72.906618)"><g><path d="M 10.265625 -11.1875 C 10.265625 -10.976562 10.160156 -10.875 9.953125 -10.875 L 3.90625 -10.875 C 3.832031 -10.875 3.796875 -10.835938 3.796875 -10.765625 L 3.796875 -7.890625 C 3.796875 -7.816406 3.832031 -7.78125 3.90625 -7.78125 L 7.828125 -7.78125 C 8.046875 -7.78125 8.15625 -7.671875 8.15625 -7.453125 L 8.15625 -5.828125 C 8.15625 -5.609375 8.046875 -5.5 7.828125 -5.5 L 3.90625 -5.5 C 3.832031 -5.5 3.796875 -5.460938 3.796875 -5.390625 L 3.796875 -2.390625 C 3.796875 -2.304688 3.832031 -2.265625 3.90625 -2.265625 L 9.953125 -2.265625 C 10.160156 -2.265625 10.265625 -2.160156 10.265625 -1.953125 L 10.265625 -0.3125 C 10.265625 -0.101562 10.160156 0 9.953125 0 L 1.46875 0 C 1.25 0 1.140625 -0.101562 1.140625 -0.3125 L 1.140625 -12.828125 C 1.140625 -13.035156 1.25 -13.140625 1.46875 -13.140625 L 9.953125 -13.140625 C 10.160156 -13.140625 10.265625 -13.035156 10.265625 -12.828125 Z M 10.265625 -11.1875 "/></g></g></g></svg>